P2
100	100
255
205	202	198	194	190	185	180	176	171	166	161	156	151	147	142	138	135	131	128	126	123	122	120	120	119	120	120	122	123	125	128	131	134	138	142	146	151	156	160	165	170	175	180	185	189	194	198	201	205	208	211	213	215	216	217	217	217	216	215	213	211	209	206	202	199	195	191	186	181	177	172	167	162	157	152	148	143	139	135	132	129	126	124	122	121	120	119	120	120	121	123	125	127	130	134	137	141	145	150	155
200	197	193	189	185	180	175	170	166	161	156	151	146	142	137	133	130	126	123	121	118	117	115	115	114	115	115	116	118	120	123	126	129	133	137	141	146	150	155	160	165	170	175	180	184	188	193	196	200	203	205	208	210	211	212	212	212	211	210	208	206	204	201	197	194	190	185	181	176	171	167	162	157	152	147	143	138	134	130	127	124	121	119	117	116	115	114	114	115	116	118	120	122	125	128	132	136	140	145	149
194	191	187	183	178	174	169	164	159	155	150	145	140	136	131	127	123	120	117	114	112	110	109	108	108	108	109	110	112	114	117	120	123	127	131	135	140	144	149	154	159	164	169	173	178	182	186	190	194	197	199	202	203	205	205	206	206	205	204	202	200	198	195	191	188	184	179	175	170	165	160	156	151	146	141	136	132	128	124	121	118	115	113	111	109	109	108	108	109	110	112	114	116	119	122	126	130	134	139	143
187	184	180	176	171	167	162	157	152	147	143	138	133	129	124	120	116	113	110	107	105	103	102	101	101	101	102	103	105	107	110	113	116	120	124	128	133	137	142	147	152	157	162	166	171	175	179	183	187	190	192	195	196	198	198	199	199	198	197	195	193	191	188	184	181	177	172	168	163	158	153	148	144	139	134	129	125	121	117	114	111	108	106	104	102	102	101	101	102	103	105	107	109	112	115	119	123	127	132	136
179	176	172	168	164	159	154	150	145	140	135	130	125	121	116	112	109	105	102	100	97	96	94	94	93	94	94	96	97	99	102	105	108	112	116	120	125	130	134	139	144	149	154	159	163	168	172	175	179	182	185	187	189	190	191	191	191	190	189	187	185	183	180	177	173	169	165	160	155	151	146	141	136	131	126	122	117	113	109	106	103	100	98	96	95	94	93	94	94	95	97	99	101	104	108	111	115	119	124	129
171	168	164	160	156	151	146	141	137	132	127	122	117	113	108	104	101	97	94	91	89	88	86	86	85	85	86	87	89	91	94	97	100	104	108	112	117	121	126	131	136	141	146	151	155	159	164	167	171	174	176	179	180	182	183	183	183	182	181	179	177	175	172	168	165	161	156	152	147	142	138	133	128	123	118	114	109	105	101	98	95	92	90	88	87	86	85	85	86	87	89	91	93	96	99	103	107	111	116	120
163	159	156	151	147	143	138	133	128	123	118	114	109	104	100	96	92	89	86	83	81	79	78	77	77	77	78	79	81	83	85	88	92	96	100	104	108	113	118	123	128	133	137	142	147	151	155	159	162	165	168	170	172	173	174	175	174	174	173	171	169	166	163	160	156	152	148	144	139	134	129	124	119	115	110	105	101	97	93	89	86	84	81	80	78	77	77	77	78	79	80	82	85	88	91	95	99	103	107	112
154	151	147	143	139	134	130	125	120	115	110	105	100	96	92	88	84	80	77	75	73	71	70	69	69	69	70	71	72	75	77	80	83	87	91	96	100	105	110	114	119	124	129	134	138	143	147	151	154	157	160	162	164	165	166	166	166	165	164	163	161	158	155	152	148	144	140	135	131	126	121	116	111	106	101	97	93	88	85	81	78	75	73	71	70	69	69	69	69	70	72	74	77	79	83	86	90	95	99	104
146	143	139	135	131	126	122	117	112	107	102	97	92	88	84	80	76	72	69	67	65	63	62	61	61	61	61	63	64	67	69	72	75	79	83	87	92	97	102	106	111	116	121	126	130	135	139	143	146	149	152	154	156	157	158	158	158	157	156	155	152	150	147	144	140	136	132	127	123	118	113	108	103	98	93	89	84	80	77	73	70	67	65	63	62	61	61	61	61	62	64	66	69	71	75	78	82	87	91	96
139	135	132	128	123	119	114	109	104	99	94	90	85	80	76	72	68	65	62	59	57	55	54	53	53	53	54	55	57	59	62	65	68	72	76	80	84	89	94	99	104	109	114	118	123	127	131	135	138	142	144	146	148	150	150	151	151	150	149	147	145	142	139	136	132	128	124	120	115	110	105	100	95	91	86	81	77	73	69	66	62	60	57	56	54	53	53	53	54	55	56	59	61	64	67	71	75	79	84	88
132	129	125	121	116	112	107	102	98	93	88	83	78	74	69	65	62	58	55	52	50	49	47	47	46	46	47	48	50	52	55	58	61	65	69	73	78	82	87	92	97	102	107	112	116	120	124	128	132	135	137	140	141	143	144	144	144	143	142	140	138	136	133	129	126	122	117	113	108	103	99	94	89	84	79	75	70	66	62	59	56	53	51	49	47	47	46	46	47	48	50	52	54	57	60	64	68	72	77	81
126	123	119	115	111	106	101	97	92	87	82	77	72	68	63	59	56	52	49	47	44	43	41	41	40	41	41	43	44	46	49	52	55	59	63	67	72	77	81	86	91	96	101	106	110	115	119	122	126	129	132	134	136	137	138	138	138	137	136	134	132	130	127	123	120	116	112	107	102	98	93	88	83	78	73	69	64	60	56	53	50	47	45	43	42	41	40	41	41	42	44	46	48	51	55	58	62	66	71	76
121	118	114	110	106	101	97	92	87	82	77	72	68	63	59	55	51	48	44	42	40	38	37	36	36	36	37	38	39	42	44	47	51	54	58	63	67	72	77	82	86	91	96	101	105	110	114	118	121	124	127	129	131	132	133	133	133	132	131	130	128	125	122	119	115	111	107	102	98	93	88	83	78	73	69	64	60	55	52	48	45	42	40	38	37	36	36	36	36	38	39	41	44	47	50	54	57	62	66	71
118	115	111	107	102	98	93	88	83	79	74	69	64	60	55	51	47	44	41	38	36	34	33	32	32	32	33	34	36	38	41	44	47	51	55	59	64	68	73	78	83	88	93	97	102	106	110	114	118	121	123	126	127	129	130	130	130	129	128	126	124	122	119	115	112	108	103	99	94	89	84	80	75	70	65	60	56	52	48	45	42	39	37	35	33	33	32	32	33	34	36	38	40	43	46	50	54	58	63	67
116	112	109	105	100	96	91	86	81	76	71	67	62	57	53	49	45	42	39	36	34	32	31	30	30	30	31	32	34	36	39	42	45	49	53	57	62	66	71	76	81	86	91	95	100	104	108	112	116	119	121	123	125	127	127	128	128	127	126	124	122	119	116	113	109	105	101	97	92	87	82	77	72	68	63	58	54	50	46	43	39	37	34	33	31	30	30	30	31	32	34	36	38	41	44	48	52	56	61	65
115	112	108	104	100	95	90	86	81	76	71	66	61	57	52	48	45	41	38	36	33	32	30	30	29	30	30	31	33	35	38	41	44	48	52	56	61	65	70	75	80	85	90	95	99	104	108	111	115	118	121	123	125	126	127	127	127	126	125	123	121	119	116	112	109	105	100	96	91	87	82	77	72	67	62	58	53	49	45	42	39	36	34	32	31	30	29	29	30	31	33	35	37	40	44	47	51	55	60	65
116	112	109	105	100	96	91	86	81	76	72	67	62	57	53	49	45	42	39	36	34	32	31	30	30	30	31	32	34	36	39	42	45	49	53	57	62	66	71	76	81	86	91	95	100	104	108	112	116	119	121	123	125	127	127	128	128	127	126	124	122	119	116	113	109	105	101	97	92	87	82	77	73	68	63	58	54	50	46	43	39	37	34	33	31	30	30	30	31	32	34	36	38	41	44	48	52	56	61	65
118	115	111	107	102	98	93	88	83	79	74	69	64	60	55	51	47	44	41	38	36	34	33	32	32	32	33	34	36	38	41	44	47	51	55	59	64	68	73	78	83	88	93	97	102	106	110	114	118	121	123	126	127	129	130	130	130	129	128	126	124	122	119	115	112	108	103	99	94	89	84	80	75	70	65	60	56	52	48	45	42	39	37	35	33	33	32	32	33	34	36	38	40	43	46	50	54	58	63	67
121	118	114	110	106	101	97	92	87	82	77	72	68	63	59	55	51	48	45	42	40	38	37	36	36	36	37	38	40	42	44	47	51	54	58	63	67	72	77	82	86	91	96	101	106	110	114	118	121	124	127	129	131	132	133	133	133	133	131	130	128	125	122	119	115	111	107	102	98	93	88	83	78	73	69	64	60	56	52	48	45	42	40	38	37	36	36	36	36	38	39	41	44	47	50	54	57	62	66	71
126	123	119	115	111	106	101	97	92	87	82	77	72	68	63	59	56	52	49	47	44	43	41	41	40	41	41	43	44	46	49	52	55	59	63	67	72	77	81	86	91	96	101	106	110	115	119	122	126	129	132	134	136	137	138	138	138	137	136	134	132	130	127	124	120	116	112	107	102	98	93	88	83	78	73	69	64	60	56	53	50	47	45	43	42	41	40	41	41	42	44	46	48	51	55	58	62	66	71	76
132	129	125	121	117	112	107	102	98	93	88	83	78	74	69	65	62	58	55	52	50	49	47	47	46	46	47	48	50	52	55	58	61	65	69	73	78	82	87	92	97	102	107	112	116	120	125	128	132	135	137	140	141	143	144	144	144	143	142	140	138	136	133	129	126	122	117	113	108	103	99	94	89	84	79	75	70	66	62	59	56	53	51	49	48	47	46	46	47	48	50	52	54	57	60	64	68	72	77	81
139	135	132	128	123	119	114	109	104	99	95	90	85	80	76	72	68	65	62	59	57	55	54	53	53	53	54	55	57	59	62	65	68	72	76	80	85	89	94	99	104	109	114	118	123	127	131	135	139	142	144	146	148	150	150	151	151	150	149	147	145	142	140	136	132	128	124	120	115	110	105	100	96	91	86	81	77	73	69	66	62	60	57	56	54	53	53	53	54	55	57	59	61	64	67	71	75	79	84	88
146	143	139	135	131	126	122	117	112	107	102	97	93	88	84	80	76	72	69	67	65	63	62	61	61	61	62	63	64	67	69	72	76	79	83	88	92	97	102	106	111	116	121	126	130	135	139	143	146	149	152	154	156	157	158	158	158	157	156	155	153	150	147	144	140	136	132	127	123	118	113	108	103	98	93	89	85	80	77	73	70	67	65	63	62	61	61	61	61	62	64	66	69	71	75	78	82	87	91	96
154	151	147	143	139	134	130	125	120	115	110	105	101	96	92	88	84	80	77	75	73	71	70	69	69	69	70	71	72	75	77	80	84	87	91	96	100	105	110	115	119	124	129	134	138	143	147	151	154	157	160	162	164	165	166	166	166	165	164	163	161	158	155	152	148	144	140	135	131	126	121	116	111	106	101	97	93	88	85	81	78	75	73	71	70	69	69	69	69	70	72	74	77	80	83	86	90	95	99	104
163	159	156	152	147	143	138	133	128	123	118	114	109	104	100	96	92	89	86	83	81	79	78	77	77	77	78	79	81	83	86	89	92	96	100	104	108	113	118	123	128	133	138	142	147	151	155	159	162	165	168	170	172	173	174	175	174	174	173	171	169	166	163	160	156	152	148	144	139	134	129	124	119	115	110	105	101	97	93	89	86	84	81	80	78	77	77	77	78	79	80	82	85	88	91	95	99	103	107	112
171	168	164	160	156	151	146	142	137	132	127	122	117	113	108	104	101	97	94	92	89	88	86	86	85	86	86	87	89	91	94	97	100	104	108	112	117	121	126	131	136	141	146	151	155	159	164	167	171	174	177	179	181	182	183	183	183	182	181	179	177	175	172	168	165	161	156	152	147	143	138	133	128	123	118	114	109	105	101	98	95	92	90	88	87	86	85	85	86	87	89	91	93	96	100	103	107	111	116	121
179	176	172	168	164	159	154	150	145	140	135	130	125	121	117	112	109	105	102	100	97	96	95	94	93	94	94	96	97	99	102	105	108	112	116	120	125	130	134	139	144	149	154	159	163	168	172	175	179	182	185	187	189	190	191	191	191	190	189	187	185	183	180	177	173	169	165	160	155	151	146	141	136	131	126	122	117	113	109	106	103	100	98	96	95	94	93	94	94	95	97	99	101	104	108	111	115	120	124	129
187	184	180	176	171	167	162	157	152	148	143	138	133	129	124	120	116	113	110	107	105	103	102	101	101	101	102	103	105	107	110	113	116	120	124	128	133	137	142	147	152	157	162	166	171	175	179	183	187	190	192	195	196	198	199	199	199	198	197	195	193	191	188	184	181	177	172	168	163	158	153	149	144	139	134	129	125	121	117	114	111	108	106	104	102	102	101	101	102	103	105	107	109	112	115	119	123	127	132	136
194	191	187	183	178	174	169	164	159	155	150	145	140	136	131	127	123	120	117	114	112	110	109	108	108	108	109	110	112	114	117	120	123	127	131	135	140	144	149	154	159	164	169	173	178	182	186	190	194	197	199	202	203	205	206	206	206	205	204	202	200	198	195	191	188	184	179	175	170	165	160	156	151	146	141	136	132	128	124	121	118	115	113	111	109	109	108	108	109	110	112	114	116	119	122	126	130	134	139	143
200	197	193	189	185	180	175	171	166	161	156	151	146	142	137	133	130	126	123	121	118	117	115	115	114	115	115	116	118	120	123	126	129	133	137	141	146	150	155	160	165	170	175	180	184	188	193	196	200	203	206	208	210	211	212	212	212	211	210	208	206	204	201	197	194	190	185	181	176	172	167	162	157	152	147	143	138	134	130	127	124	121	119	117	116	115	114	114	115	116	118	120	122	125	129	132	136	140	145	150
205	202	198	194	190	185	180	176	171	166	161	156	151	147	142	138	135	131	128	126	123	122	120	120	119	120	120	122	123	125	128	131	134	138	142	146	151	156	160	165	170	175	180	185	189	194	198	201	205	208	211	213	215	216	217	217	217	216	215	213	211	209	206	203	199	195	191	186	181	177	172	167	162	157	152	148	143	139	135	132	129	126	124	122	121	120	119	120	120	121	123	125	127	130	134	137	141	145	150	155
209	206	202	198	194	189	184	179	175	170	165	160	155	151	146	142	139	135	132	129	127	126	124	124	123	123	124	125	127	129	132	135	138	142	146	150	155	159	164	169	174	179	184	189	193	197	202	205	209	212	214	217	218	220	221	221	221	220	219	217	215	213	210	206	203	199	194	190	185	180	176	171	166	161	156	152	147	143	139	136	133	130	128	126	125	124	123	123	124	125	127	129	131	134	137	141	145	149	154	158
212	208	204	200	196	192	187	182	177	172	167	162	158	153	149	145	141	138	135	132	130	128	127	126	126	126	127	128	130	132	134	137	141	144	148	153	157	162	167	172	177	182	186	191	196	200	204	208	211	214	217	219	221	222	223	223	223	223	221	220	218	215	212	209	205	201	197	192	188	183	178	173	168	163	159	154	150	146	142	138	135	133	130	128	127	126	126	126	127	128	129	131	134	137	140	144	148	152	156	161
213	209	206	202	197	193	188	183	178	173	168	164	159	154	150	146	142	139	136	133	131	129	128	127	127	127	128	129	131	133	135	138	142	146	150	154	158	163	168	173	178	183	187	192	197	201	205	209	212	215	218	220	222	223	224	225	224	224	223	221	219	216	213	210	206	202	198	194	189	184	179	174	169	165	160	155	151	147	143	139	136	134	131	130	128	127	127	127	128	129	130	132	135	138	141	145	149	153	157	162
212	209	205	201	197	192	188	183	178	173	168	163	159	154	150	146	142	139	135	133	131	129	128	127	127	127	128	129	130	133	135	138	142	145	149	154	158	163	168	173	177	182	187	192	196	201	205	209	212	215	218	220	222	223	224	224	224	223	222	221	219	216	213	210	206	202	198	193	189	184	179	174	169	164	160	155	151	146	143	139	136	133	131	129	128	127	127	127	127	129	130	132	135	138	141	144	148	153	157	162
211	207	204	199	195	191	186	181	176	171	166	162	157	152	148	144	140	137	134	131	129	127	126	125	125	125	126	127	129	131	133	136	140	144	148	152	156	161	166	171	176	181	185	190	195	199	203	207	210	213	216	218	220	221	222	223	222	222	221	219	217	214	211	208	204	200	196	192	187	182	177	172	167	163	158	153	149	145	141	137	134	132	129	128	126	125	125	125	126	127	128	130	133	136	139	143	147	151	155	160
208	204	200	196	192	188	183	178	173	168	163	158	154	149	145	141	137	134	131	128	126	124	123	122	122	122	123	124	126	128	130	133	137	140	144	149	153	158	163	168	173	178	182	187	192	196	200	204	207	210	213	215	217	218	219	219	219	219	217	216	214	211	208	205	201	197	193	188	184	179	174	169	164	159	155	150	146	142	138	134	131	129	126	124	123	122	122	122	123	124	125	127	130	133	136	140	144	148	152	157
203	200	196	192	188	183	178	174	169	164	159	154	149	145	141	136	133	129	126	124	121	120	118	118	117	118	118	120	121	123	126	129	132	136	140	144	149	154	158	163	168	173	178	183	187	192	196	199	203	206	209	211	213	214	215	215	215	214	213	211	209	207	204	201	197	193	189	184	179	175	170	165	160	155	150	146	141	137	133	130	127	124	122	120	119	118	117	118	118	119	121	123	125	128	132	135	139	143	148	153
198	194	191	186	182	178	173	168	163	158	153	149	144	139	135	131	127	124	121	118	116	114	113	112	112	112	113	114	116	118	120	123	127	131	135	139	143	148	153	158	163	168	172	177	182	186	190	194	197	200	203	205	207	208	209	210	209	209	208	206	204	201	198	195	191	187	183	179	174	169	164	159	154	149	145	140	136	132	128	124	121	119	116	115	113	112	112	112	113	114	115	117	120	123	126	130	134	138	142	147
191	188	184	180	176	171	166	162	157	152	147	142	137	133	128	124	121	117	114	112	109	108	106	106	105	106	106	108	109	111	114	117	120	124	128	132	137	142	146	151	156	161	166	171	175	180	184	187	191	194	197	199	201	202	203	203	203	202	201	199	197	195	192	188	185	181	177	172	167	163	158	153	148	143	138	134	129	125	121	118	115	112	110	108	107	106	105	105	106	107	109	111	113	116	120	123	127	131	136	141
184	180	177	173	168	164	159	154	149	144	139	135	130	125	121	117	113	110	107	104	102	100	99	98	98	98	99	100	102	104	107	110	113	117	121	125	129	134	139	144	149	154	159	163	168	172	176	180	184	187	189	191	193	195	195	196	196	195	194	192	190	187	184	181	177	173	169	165	160	155	150	145	140	136	131	126	122	118	114	111	107	105	102	101	99	98	98	98	99	100	101	104	106	109	112	116	120	124	129	133
176	173	169	165	160	156	151	146	141	136	132	127	122	118	113	109	105	102	99	96	94	92	91	90	90	90	91	92	94	96	99	102	105	109	113	117	122	126	131	136	141	146	151	155	160	164	168	172	176	179	181	184	185	187	187	188	188	187	186	184	182	180	177	173	170	166	161	157	152	147	142	137	133	128	123	118	114	110	106	103	100	97	95	93	91	91	90	90	91	92	94	96	98	101	104	108	112	116	121	125
168	164	160	156	152	148	143	138	133	128	123	118	114	109	105	101	97	94	91	88	86	84	83	82	82	82	83	84	86	88	90	93	97	100	105	109	113	118	123	128	133	138	142	147	152	156	160	164	167	170	173	175	177	178	179	180	179	179	178	176	174	171	168	165	161	157	153	149	144	139	134	129	124	119	115	110	106	102	98	94	91	89	86	84	83	82	82	82	83	84	85	87	90	93	96	100	104	108	112	117
159	156	152	148	144	139	135	130	125	120	115	110	105	101	97	92	89	85	82	80	78	76	75	74	73	74	74	76	77	79	82	85	88	92	96	100	105	110	114	119	124	129	134	139	143	148	152	156	159	162	165	167	169	170	171	171	171	170	169	167	165	163	160	157	153	149	145	140	135	131	126	121	116	111	106	102	97	93	89	86	83	80	78	76	75	74	73	74	74	75	77	79	81	84	88	91	95	100	104	109
151	148	144	140	136	131	126	121	117	112	107	102	97	93	88	84	81	77	74	71	69	68	66	66	65	65	66	67	69	71	74	77	80	84	88	92	97	101	106	111	116	121	126	131	135	139	143	147	151	154	156	159	160	162	163	163	163	162	161	159	157	155	152	148	145	141	136	132	127	122	118	113	108	103	98	94	89	85	81	78	75	72	70	68	66	66	65	65	66	67	69	71	73	76	79	83	87	91	96	100
143	140	136	132	128	123	118	114	109	104	99	94	89	85	80	76	73	69	66	64	61	60	58	58	57	58	58	60	61	63	66	69	72	76	80	84	89	94	98	103	108	113	118	123	127	132	136	139	143	146	149	151	153	154	155	155	155	154	153	151	149	147	144	140	137	133	129	124	119	115	110	105	100	95	90	86	81	77	73	70	67	64	62	60	59	58	57	58	58	59	61	63	65	68	72	75	79	83	88	93
136	133	129	125	120	116	111	106	101	96	92	87	82	78	73	69	65	62	59	56	54	52	51	50	50	50	51	52	54	56	59	62	65	69	73	77	82	86	91	96	101	106	111	115	120	124	128	132	136	139	141	144	145	147	147	148	148	147	146	144	142	140	137	133	130	126	121	117	112	107	102	97	93	88	83	78	74	70	66	63	60	57	55	53	51	51	50	50	51	52	54	56	58	61	64	68	72	76	81	85
130	126	122	118	114	109	105	100	95	90	85	80	76	71	67	63	59	56	53	50	48	46	45	44	44	44	45	46	48	50	52	55	59	62	66	71	75	80	85	90	95	99	104	109	114	118	122	126	129	132	135	137	139	140	141	141	141	141	139	138	136	133	130	127	123	119	115	110	106	101	96	91	86	81	77	72	68	64	60	56	53	50	48	46	45	44	44	44	44	46	47	49	52	55	58	62	66	70	74	79
124	121	117	113	109	104	99	95	90	85	80	75	70	66	61	57	54	50	47	45	42	41	39	39	38	39	39	40	42	44	47	50	53	57	61	65	70	74	79	84	89	94	99	104	108	112	117	120	124	127	130	132	134	135	136	136	136	135	134	132	130	128	125	121	118	114	109	105	100	95	91	86	81	76	71	67	62	58	54	51	48	45	43	41	40	39	38	38	39	40	42	44	46	49	53	56	60	64	69	73
120	116	113	109	104	100	95	90	85	80	76	71	66	61	57	53	49	46	43	40	38	36	35	34	34	34	35	36	38	40	43	46	49	53	57	61	66	70	75	80	85	90	95	99	104	108	112	116	120	123	125	128	129	131	131	132	132	131	130	128	126	123	121	117	113	110	105	101	96	91	86	81	77	72	67	62	58	54	50	47	43	41	39	37	35	34	34	34	35	36	38	40	42	45	48	52	56	60	65	69
117	114	110	106	101	97	92	87	82	77	73	68	63	59	54	50	46	43	40	37	35	33	32	31	31	31	32	33	35	37	40	43	46	50	54	58	63	67	72	77	82	87	92	96	101	105	109	113	117	120	122	125	126	128	128	129	129	128	127	125	123	121	118	114	111	107	102	98	93	88	83	78	74	69	64	59	55	51	47	44	41	38	36	34	32	32	31	31	32	33	35	37	39	42	45	49	53	57	62	66
115	112	108	104	100	95	91	86	81	76	71	66	61	57	53	49	45	41	38	36	34	32	31	30	30	30	31	32	33	36	38	41	44	48	52	57	61	66	71	75	80	85	90	95	99	104	108	112	115	118	121	123	125	126	127	127	127	126	125	124	122	119	116	113	109	105	101	96	92	87	82	77	72	67	62	58	54	49	46	42	39	36	34	32	31	30	30	30	30	31	33	35	38	40	44	47	51	56	60	65
115	112	108	104	100	95	90	86	81	76	71	66	61	57	53	48	45	41	38	36	33	32	30	30	29	30	30	32	33	35	38	41	44	48	52	56	61	66	70	75	80	85	90	95	99	104	108	111	115	118	121	123	125	126	127	127	127	126	125	123	121	119	116	113	109	105	101	96	91	87	82	77	72	67	62	58	53	49	45	42	39	36	34	32	31	30	29	30	30	31	33	35	37	40	44	47	51	56	60	65
117	113	109	105	101	96	92	87	82	77	72	67	63	58	54	50	46	43	40	37	35	33	32	31	31	31	32	33	35	37	39	42	46	49	53	58	62	67	72	77	82	86	91	96	101	105	109	113	116	119	122	124	126	127	128	128	128	128	126	125	123	120	117	114	110	106	102	97	93	88	83	78	73	68	64	59	55	51	47	43	40	37	35	33	32	31	31	31	32	33	34	36	39	42	45	49	53	57	61	66
119	116	112	108	104	99	94	90	85	80	75	70	65	61	57	52	49	45	42	40	37	36	35	34	33	34	34	36	37	39	42	45	48	52	56	60	65	70	74	79	84	89	94	99	103	108	112	115	119	122	125	127	129	130	131	131	131	130	129	127	125	123	120	117	113	109	105	100	95	91	86	81	76	71	66	62	57	53	49	46	43	40	38	36	35	34	33	34	34	35	37	39	41	44	48	51	55	60	64	69
123	120	116	112	108	103	99	94	89	84	79	74	69	65	61	56	53	49	46	44	42	40	39	38	37	38	38	40	41	43	46	49	52	56	60	64	69	74	78	83	88	93	98	103	107	112	116	120	123	126	129	131	133	134	135	135	135	134	133	132	129	127	124	121	117	113	109	104	99	95	90	85	80	75	70	66	61	57	53	50	47	44	42	40	39	38	37	38	38	39	41	43	45	48	52	55	59	64	68	73
128	125	121	117	113	108	104	99	94	89	84	79	75	70	66	62	58	55	52	49	47	45	44	43	43	43	44	45	47	49	51	54	58	61	65	70	74	79	84	89	93	98	103	108	113	117	121	125	128	131	134	136	138	139	140	140	140	140	138	137	135	132	129	126	122	118	114	109	105	100	95	90	85	80	76	71	67	63	59	55	52	49	47	45	44	43	43	43	43	45	46	48	51	54	57	61	65	69	73	78
135	131	128	124	119	115	110	105	100	95	90	86	81	76	72	68	64	61	58	55	53	51	50	49	49	49	50	51	53	55	58	60	64	68	72	76	80	85	90	95	100	105	110	114	119	123	127	131	134	137	140	142	144	145	146	147	146	146	145	143	141	138	135	132	128	124	120	116	111	106	101	96	91	87	82	77	73	69	65	61	58	56	53	52	50	49	49	49	50	51	52	54	57	60	63	67	71	75	79	84
142	138	135	131	126	122	117	112	107	102	98	93	88	83	79	75	71	68	65	62	60	58	57	56	56	56	57	58	60	62	65	68	71	75	79	83	88	92	97	102	107	112	117	121	126	130	134	138	142	145	147	150	151	153	153	154	154	153	152	150	148	145	143	139	135	131	127	123	118	113	108	103	99	94	89	84	80	76	72	69	65	63	61	59	57	56	56	56	57	58	60	62	64	67	70	74	78	82	87	91
150	146	142	138	134	130	125	120	115	110	105	100	96	91	87	83	79	76	73	70	68	66	65	64	64	64	65	66	68	70	72	75	79	82	86	91	95	100	105	110	115	120	124	129	134	138	142	146	149	152	155	157	159	160	161	161	161	161	159	158	156	153	150	147	143	139	135	131	126	121	116	111	106	101	97	92	88	84	80	76	73	71	68	66	65	64	64	64	65	66	67	69	72	75	78	82	86	90	94	99
158	154	151	147	142	138	133	128	123	118	113	109	104	99	95	91	87	84	81	78	76	74	73	72	72	72	73	74	76	78	81	84	87	91	95	99	103	108	113	118	123	128	133	137	142	146	150	154	157	161	163	165	167	169	169	170	170	169	168	166	164	161	158	155	151	147	143	139	134	129	124	119	114	110	105	100	96	92	88	85	81	79	76	75	73	72	72	72	73	74	75	78	80	83	86	90	94	98	103	107
166	163	159	155	151	146	141	137	132	127	122	117	112	108	103	99	96	92	89	87	84	83	81	81	80	81	81	83	84	86	89	92	95	99	103	107	112	117	121	126	131	136	141	146	150	155	159	162	166	169	172	174	176	177	178	178	178	177	176	174	172	170	167	163	160	156	152	147	142	138	133	128	123	118	113	109	104	100	96	93	90	87	85	83	82	81	80	81	81	82	84	86	88	91	95	98	102	106	111	116
174	171	167	163	159	154	150	145	140	135	130	125	121	116	112	108	104	101	98	95	93	91	90	89	89	89	90	91	93	95	97	100	104	107	111	116	120	125	130	135	139	144	149	154	159	163	167	171	174	177	180	182	184	185	186	186	186	186	184	183	181	178	175	172	168	164	160	155	151	146	141	136	131	126	122	117	113	109	105	101	98	95	93	91	90	89	89	89	89	91	92	94	97	100	103	107	111	115	119	124
182	179	175	171	167	162	158	153	148	143	138	133	129	124	120	116	112	109	106	103	101	99	98	97	97	97	98	99	101	103	105	108	112	115	119	124	128	133	138	143	147	152	157	162	167	171	175	179	182	185	188	190	192	193	194	194	194	194	192	191	189	186	183	180	176	172	168	163	159	154	149	144	139	134	130	125	121	117	113	109	106	103	101	99	98	97	97	97	97	99	100	102	105	108	111	115	119	123	127	132
190	187	183	179	174	170	165	160	155	150	146	141	136	132	127	123	119	116	113	110	108	106	105	104	104	104	105	106	108	110	113	116	119	123	127	131	136	140	145	150	155	160	165	169	174	178	182	186	190	193	195	198	199	201	201	202	202	201	200	198	196	194	191	187	184	180	175	171	166	161	156	151	147	142	137	132	128	124	120	117	114	111	109	107	105	105	104	104	105	106	108	110	112	115	118	122	126	130	135	139
197	193	189	185	181	177	172	167	162	157	152	147	143	138	134	130	126	123	120	117	115	113	112	111	111	111	112	113	115	117	119	122	126	129	133	138	142	147	152	157	162	167	171	176	181	185	189	193	196	199	202	204	206	207	208	208	208	208	206	205	203	200	197	194	190	186	182	177	173	168	163	158	153	148	144	139	135	131	127	123	120	118	115	113	112	111	111	111	112	113	114	116	119	122	125	129	133	137	141	146
202	199	195	191	187	182	178	173	168	163	158	153	148	144	140	136	132	128	125	123	121	119	118	117	117	117	117	119	120	123	125	128	131	135	139	143	148	153	158	162	167	172	177	182	186	191	195	199	202	205	208	210	212	213	214	214	214	213	212	211	208	206	203	200	196	192	188	183	179	174	169	164	159	154	149	145	140	136	133	129	126	123	121	119	118	117	117	117	117	118	120	122	125	127	131	134	138	143	147	152
207	204	200	196	191	187	182	177	172	168	163	158	153	149	144	140	136	133	130	127	125	123	122	121	121	121	122	123	125	127	130	133	136	140	144	148	153	157	162	167	172	177	182	186	191	195	199	203	207	210	212	215	216	218	218	219	219	218	217	215	213	211	208	204	201	197	192	188	183	178	173	169	164	159	154	149	145	141	137	134	131	128	126	124	122	122	121	121	122	123	125	127	129	132	135	139	143	147	152	156
210	207	203	199	195	190	185	181	176	171	166	161	156	152	148	143	140	136	133	131	128	127	126	125	124	125	125	127	128	130	133	136	139	143	147	151	156	161	165	170	175	180	185	190	194	199	203	207	210	213	216	218	220	221	222	222	222	221	220	218	216	214	211	208	204	200	196	191	186	182	177	172	167	162	157	153	148	144	140	137	134	131	129	127	126	125	124	125	125	126	128	130	132	135	139	142	146	151	155	160
212	209	205	201	197	192	187	183	178	173	168	163	158	154	150	145	142	138	135	133	130	129	127	127	126	127	127	129	130	132	135	138	141	145	149	153	158	163	167	172	177	182	187	192	196	201	205	208	212	215	218	220	222	223	224	224	224	223	222	220	218	216	213	210	206	202	198	193	188	184	179	174	169	164	159	155	150	146	142	139	136	133	131	129	128	127	126	127	127	128	130	132	134	137	141	144	148	152	157	162
213	209	206	202	197	193	188	183	178	173	168	164	159	154	150	146	142	139	136	133	131	129	128	127	127	127	128	129	131	133	136	139	142	146	150	154	158	163	168	173	178	183	188	192	197	201	205	209	212	216	218	220	222	224	224	225	224	224	223	221	219	216	213	210	206	202	198	194	189	184	179	174	169	165	160	155	151	147	143	140	136	134	131	130	128	127	127	127	128	129	130	132	135	138	141	145	149	153	158	162
212	208	205	201	196	192	187	182	177	172	168	163	158	153	149	145	141	138	135	132	130	128	127	126	126	126	127	128	130	132	135	138	141	145	149	153	158	162	167	172	177	182	187	191	196	200	204	208	212	215	217	220	221	223	223	224	224	223	222	220	218	215	213	209	206	202	197	193	188	183	178	173	169	164	159	154	150	146	142	139	136	133	131	129	127	126	126	126	127	128	130	132	134	137	140	144	148	152	157	161
210	206	202	198	194	190	185	180	175	170	165	160	156	151	147	143	139	136	133	130	128	126	125	124	124	124	125	126	128	130	132	135	139	142	146	151	155	160	165	170	175	180	184	189	194	198	202	206	209	212	215	217	219	220	221	221	221	221	219	218	216	213	210	207	203	199	195	190	186	181	176	171	166	161	157	152	148	144	140	136	133	131	128	126	125	124	124	124	125	126	127	129	132	135	138	142	146	150	154	159
206	203	199	195	190	186	181	176	171	167	162	157	152	148	143	139	135	132	129	126	124	122	121	120	120	120	121	122	124	126	129	132	135	139	143	147	152	156	161	166	171	176	181	185	190	194	198	202	206	209	211	214	215	217	218	218	218	217	216	214	212	210	207	203	200	196	191	187	182	177	172	168	163	158	153	148	144	140	136	133	130	127	125	123	121	121	120	120	121	122	124	126	128	131	134	138	142	146	151	155
201	198	194	190	186	181	176	171	167	162	157	152	147	143	138	134	131	127	124	122	119	118	116	116	115	116	116	117	119	121	124	127	130	134	138	142	147	151	156	161	166	171	176	181	185	189	194	197	201	204	207	209	211	212	213	213	213	212	211	209	207	205	202	198	195	191	186	182	177	172	168	163	158	153	148	144	139	135	131	128	125	122	120	118	117	116	115	115	116	117	119	121	123	126	129	133	137	141	146	150
195	192	188	184	180	175	170	166	161	156	151	146	141	137	132	128	125	121	118	116	113	112	110	110	109	110	110	111	113	115	118	121	124	128	132	136	141	145	150	155	160	165	170	175	179	183	188	191	195	198	201	203	205	206	207	207	207	206	205	203	201	199	196	192	189	185	180	176	171	167	162	157	152	147	142	138	133	129	125	122	119	116	114	112	111	110	109	109	110	111	113	115	117	120	124	127	131	135	140	145
188	185	181	177	173	168	163	159	154	149	144	139	134	130	126	121	118	114	111	109	106	105	103	103	102	103	103	105	106	108	111	114	117	121	125	129	134	139	143	148	153	158	163	168	172	177	181	184	188	191	194	196	198	199	200	200	200	199	198	196	194	192	189	186	182	178	174	169	164	160	155	150	145	140	135	131	126	122	118	115	112	109	107	105	104	103	102	103	103	104	106	108	110	113	117	120	124	129	133	138
181	177	173	169	165	161	156	151	146	141	136	131	127	122	118	114	110	107	104	101	99	97	96	95	95	95	96	97	99	101	103	106	110	113	118	122	126	131	136	141	146	151	155	160	165	169	173	177	180	183	186	188	190	191	192	193	192	192	191	189	187	184	181	178	174	170	166	162	157	152	147	142	137	132	128	123	119	115	111	107	104	102	99	97	96	95	95	95	96	97	98	100	103	106	109	113	117	121	125	130
173	169	165	161	157	152	148	143	138	133	128	123	119	114	110	106	102	99	96	93	91	89	88	87	87	87	88	89	91	93	95	98	102	105	109	114	118	123	128	133	138	142	147	152	157	161	165	169	172	175	178	180	182	183	184	184	184	184	182	181	179	176	173	170	166	162	158	153	149	144	139	134	129	124	120	115	111	107	103	99	96	93	91	89	88	87	87	87	88	89	90	92	95	98	101	105	109	113	117	122
164	161	157	153	149	144	139	135	130	125	120	115	110	106	101	97	94	90	87	85	82	81	79	79	78	79	79	81	82	84	87	90	93	97	101	105	110	115	119	124	129	134	139	144	148	153	157	160	164	167	170	172	174	175	176	176	176	175	174	172	170	168	165	162	158	154	150	145	140	136	131	126	121	116	111	107	102	98	94	91	88	85	83	81	80	79	78	79	79	80	82	84	86	89	93	96	100	104	109	114
156	152	149	145	140	136	131	126	121	116	112	107	102	97	93	89	85	82	79	76	74	72	71	70	70	70	71	72	74	76	79	82	85	89	93	97	102	106	111	116	121	126	131	135	140	144	148	152	156	159	161	164	165	167	167	168	168	167	166	164	162	159	157	153	149	145	141	137	132	127	122	117	113	108	103	98	94	90	86	83	79	77	75	73	71	70	70	70	71	72	74	76	78	81	84	88	92	96	101	105
148	144	141	137	132	128	123	118	113	108	103	99	94	89	85	81	77	74	71	68	66	64	63	62	62	62	63	64	66	68	71	74	77	81	85	89	93	98	103	108	113	118	123	127	132	136	140	144	147	151	153	155	157	158	159	160	159	159	158	156	154	151	148	145	141	137	133	129	124	119	114	109	104	100	95	90	86	82	78	74	71	69	66	65	63	62	62	62	63	64	65	67	70	73	76	80	84	88	92	97
140	137	133	129	125	120	115	111	106	101	96	91	86	82	77	73	70	66	63	61	58	57	55	55	54	55	55	56	58	60	63	66	69	73	77	81	86	90	95	100	105	110	115	120	124	128	133	136	140	143	146	148	150	151	152	152	152	151	150	148	146	144	141	137	134	130	125	121	116	112	107	102	97	92	87	83	78	74	70	67	64	61	59	57	56	55	54	54	55	56	58	60	62	65	69	72	76	80	85	90
133	130	126	122	118	113	108	104	99	94	89	84	79	75	70	66	63	59	56	54	51	50	48	48	47	48	48	50	51	53	56	59	62	66	70	74	79	84	88	93	98	103	108	113	117	122	126	129	133	136	139	141	143	144	145	145	145	144	143	141	139	137	134	131	127	123	119	114	109	105	100	95	90	85	80	76	71	67	63	60	57	54	52	50	49	48	47	48	48	49	51	53	55	58	62	65	69	73	78	83
127	124	120	116	112	107	102	98	93	88	83	78	73	69	64	60	57	53	50	48	45	44	42	42	41	42	42	44	45	47	50	53	56	60	64	68	73	78	82	87	92	97	102	107	111	116	120	123	127	130	133	135	137	138	139	139	139	138	137	135	133	131	128	124	121	117	113	108	103	99	94	89	84	79	74	70	65	61	57	54	51	48	46	44	43	42	41	42	42	43	45	47	49	52	56	59	63	67	72	77
122	119	115	111	107	102	97	93	88	83	78	73	68	64	59	55	52	48	45	43	40	39	37	37	36	37	37	39	40	42	45	48	51	55	59	63	68	73	77	82	87	92	97	102	106	111	115	118	122	125	128	130	132	133	134	134	134	133	132	130	128	126	123	120	116	112	108	103	98	94	89	84	79	74	69	65	60	56	52	49	46	43	41	39	38	37	36	37	37	38	40	42	44	47	51	54	58	62	67	72
118	115	111	107	103	98	94	89	84	79	74	69	65	60	56	52	48	45	42	39	37	35	34	33	33	33	34	35	37	39	41	44	48	51	55	60	64	69	74	79	84	88	93	98	103	107	111	115	118	121	124	126	128	129	130	130	130	130	128	127	125	122	119	116	112	108	104	99	95	90	85	80	75	70	66	61	57	53	49	45	42	39	37	35	34	33	33	33	33	35	36	38	41	44	47	51	55	59	63	68
116	113	109	105	101	96	91	87	82	77	72	67	62	58	53	49	46	42	39	37	34	33	31	31	30	31	31	32	34	36	39	42	45	49	53	57	62	66	71	76	81	86	91	96	100	104	109	112	116	119	122	124	126	127	128	128	128	127	126	124	122	120	117	113	110	106	101	97	92	88	83	78	73	68	63	59	54	50	46	43	40	37	35	33	32	31	30	30	31	32	34	36	38	41	45	48	52	56	61	66
115	112	108	104	100	95	90	86	81	76	71	66	61	57	52	48	45	41	38	36	33	32	30	30	29	30	30	32	33	35	38	41	44	48	52	56	61	66	70	75	80	85	90	95	99	104	108	111	115	118	121	123	125	126	127	127	127	126	125	123	121	119	116	112	109	105	101	96	91	87	82	77	72	67	62	58	53	49	45	42	39	36	34	32	31	30	29	29	30	31	33	35	37	40	44	47	51	55	60	65
116	112	108	104	100	96	91	86	81	76	71	66	62	57	53	49	45	42	39	36	34	32	31	30	30	30	31	32	34	36	38	41	45	48	52	57	61	66	71	76	81	86	90	95	100	104	108	112	115	118	121	123	125	126	127	127	127	127	125	124	122	119	116	113	109	105	101	96	92	87	82	77	72	67	63	58	54	50	46	42	39	37	34	32	31	30	30	30	31	32	33	35	38	41	44	48	52	56	60	65
117	114	110	106	102	97	93	88	83	78	73	68	64	59	55	51	47	44	41	38	36	34	33	32	32	32	33	34	36	38	40	43	47	50	54	59	63	68	73	78	83	87	92	97	102	106	110	114	117	120	123	125	127	128	129	129	129	129	127	126	124	121	118	115	111	107	103	98	94	89	84	79	74	69	65	60	56	52	48	44	41	38	36	34	33	32	32	32	32	34	35	37	40	43	46	50	54	58	62	67
121	117	114	110	105	101	96	91	86	81	76	72	67	62	58	54	50	47	44	41	39	37	36	35	35	35	36	37	39	41	44	47	50	54	58	62	66	71	76	81	86	91	96	100	105	109	113	117	120	123	126	128	130	131	132	133	132	132	131	129	127	124	121	118	114	110	106	102	97	92	87	82	77	73	68	63	59	55	51	47	44	42	39	38	36	35	35	35	36	37	38	40	43	46	49	53	57	61	65	70
125	122	118	114	110	105	101	96	91	86	81	76	71	67	63	58	55	51	48	46	44	42	41	40	39	40	40	42	43	45	48	51	54	58	62	66	71	76	80	85	90	95	100	105	109	114	118	122	125	128	131	133	135	136	137	137	137	136	135	134	131	129	126	123	119	115	111	106	101	97	92	87	82	77	72	68	63	59	55	52	49	46	44	42	41	40	39	40	40	41	43	45	47	50	54	57	61	66	70	75
131	128	124	120	115	111	106	101	96	91	87	82	77	73	68	64	60	57	54	51	49	47	46	45	45	45	46	47	49	51	54	57	60	64	68	72	77	81	86	91	96	101	106	110	115	119	123	127	131	134	136	139	140	142	142	143	143	142	141	139	137	135	132	128	125	121	116	112	107	102	97	93	88	83	78	73	69	65	61	58	55	52	50	48	46	46	45	45	46	47	49	51	53	56	59	63	67	71	76	80
138	134	130	126	122	118	113	108	103	98	93	88	84	79	75	71	67	64	61	58	56	54	53	52	52	52	53	54	56	58	60	63	67	70	74	79	83	88	93	98	103	107	112	117	122	126	130	134	137	140	143	145	147	148	149	149	149	149	147	146	144	141	138	135	131	127	123	118	114	109	104	99	94	89	85	80	76	72	68	64	61	58	56	54	53	52	52	52	53	54	55	57	60	63	66	70	74	78	82	87
145	142	138	134	129	125	120	115	110	106	101	96	91	87	82	78	74	71	68	65	63	61	60	59	59	59	60	61	63	65	68	71	74	78	82	86	91	95	100	105	110	115	120	124	129	133	137	141	145	148	150	153	154	156	157	157	157	156	155	153	151	149	146	142	139	135	130	126	121	116	111	107	102	97	92	87	83	79	75	72	69	66	64	62	60	60	59	59	60	61	63	65	67	70	73	77	81	85	90	94
153	150	146	142	137	133	128	123	118	114	109	104	99	95	90	86	82	79	76	73	71	69	68	67	67	67	68	69	71	73	76	79	82	86	90	94	99	103	108	113	118	123	128	132	137	141	145	149	153	156	158	161	162	164	164	165	165	164	163	161	159	157	154	150	147	143	138	134	129	124	119	115	110	105	100	95	91	87	83	80	77	74	72	70	68	68	67	67	68	69	71	73	75	78	81	85	89	93	98	102
161	158	154	150	146	141	136	132	127	122	117	112	107	103	99	94	91	87	84	82	79	78	76	76	75	76	76	78	79	81	84	87	90	94	98	102	107	112	116	121	126	131	136	141	145	150	154	157	161	164	167	169	171	172	173	173	173	172	171	169	167	165	162	159	155	151	147	142	137	133	128	123	118	113	108	104	99	95	91	88	85	82	80	78	77	76	75	76	76	77	79	81	83	86	90	93	97	101	106	111
170	166	162	158	154	150	145	140	135	130	125	120	116	111	107	103	99	96	93	90	88	86	85	84	84	84	85	86	88	90	92	95	99	102	106	111	115	120	125	130	135	140	144	149	154	158	162	166	169	172	175	177	179	180	181	181	181	181	179	178	176	173	170	167	163	159	155	150	146	141	136	131	126	121	117	112	108	104	100	96	93	91	88	86	85	84	84	84	85	86	87	89	92	95	98	102	106	110	114	119
178	174	171	167	162	158	153	148	143	138	133	129	124	119	115	111	107	104	101	98	96	94	93	92	92	92	93	94	96	98	101	104	107	111	115	119	123	128	133	138	143	148	153	157	162	166	170	174	177	181	183	185	187	189	189	190	190	189	188	186	184	181	178	175	171	167	163	159	154	149	144	139	134	130	125	120	116	112	108	105	101	99	96	95	93	92	92	92	93	94	95	98	100	103	106	110	114	118	123	127
