P2
100	100
255
31	35	40	45	50	56	61	67	73	79	86	91	97	103	108	113	118	122	126	129	131	134	135	136	136	136	135	134	132	129	126	122	118	113	109	103	98	92	86	80	74	68	62	56	51	45	40	36	32	28	24	22	20	18	17	17	17	18	19	21	24	27	30	34	39	44	49	55	60	66	72	78	84	90	96	102	107	112	117	121	125	128	131	133	135	136	136	136	135	134	132	130	127	123	119	114	110	104	99	93
37	42	46	51	56	62	68	74	80	86	92	98	103	109	114	119	124	128	132	135	138	140	141	142	143	142	141	140	138	135	132	128	124	120	115	110	104	98	92	86	80	74	68	63	57	52	47	42	38	34	31	28	26	24	23	23	23	24	25	27	30	33	37	41	45	50	55	61	67	72	78	84	91	96	102	108	113	118	123	127	131	134	137	139	141	142	143	142	142	140	138	136	133	129	125	121	116	111	105	99
45	49	54	59	64	69	75	81	87	93	99	105	111	117	122	127	131	136	139	143	145	147	149	150	150	150	149	147	145	143	140	136	132	127	122	117	112	106	100	94	88	82	76	70	64	59	54	50	45	42	38	36	33	32	31	30	31	31	33	35	37	40	44	48	53	58	63	68	74	80	86	92	98	104	110	115	121	126	130	135	139	142	145	147	149	150	150	150	149	148	146	143	140	137	133	128	123	118	113	107
54	58	62	67	73	78	84	90	96	102	108	114	120	125	130	135	140	144	148	151	154	156	157	158	159	158	158	156	154	151	148	145	140	136	131	126	120	114	108	102	96	90	84	79	73	68	63	58	54	50	47	44	42	40	39	39	39	40	41	43	46	49	53	57	61	66	71	77	83	89	95	101	107	113	118	124	129	134	139	143	147	151	153	156	157	158	159	159	158	156	155	152	149	145	141	137	132	127	121	116
63	67	72	77	82	88	93	99	105	111	117	123	129	135	140	145	149	154	157	161	163	165	167	168	168	168	167	166	163	161	158	154	150	145	140	135	130	124	118	112	106	100	94	88	83	77	72	68	63	60	56	54	51	50	49	48	49	49	51	53	55	59	62	66	71	76	81	86	92	98	104	110	116	122	128	133	139	144	149	153	157	160	163	165	167	168	168	168	167	166	164	161	158	155	151	146	141	136	131	125
73	77	82	87	92	98	103	109	115	121	127	133	139	145	150	155	159	164	167	171	173	175	177	178	178	178	177	176	173	171	168	164	160	155	150	145	140	134	128	122	116	110	104	98	93	87	82	78	73	70	66	64	61	60	59	58	59	59	61	63	65	69	72	76	81	86	91	96	102	108	114	120	126	132	138	143	149	154	159	163	167	170	173	175	177	178	178	178	177	176	174	171	168	165	161	156	151	146	141	135
83	87	92	97	102	108	114	120	126	132	138	144	149	155	160	165	170	174	178	181	184	186	187	188	188	188	187	186	184	181	178	174	170	166	161	155	150	144	138	132	126	120	114	108	103	97	92	88	84	80	77	74	72	70	69	69	69	70	71	73	76	79	82	87	91	96	101	107	112	118	124	130	136	142	148	154	159	164	169	173	177	180	183	185	187	188	188	188	188	186	184	182	179	175	171	167	162	156	151	145
93	98	102	107	112	118	124	130	136	142	148	154	160	165	170	175	180	184	188	191	194	196	197	198	199	198	198	196	194	191	188	184	180	176	171	166	160	154	148	142	136	130	124	119	113	108	103	98	94	90	87	84	82	80	79	79	79	80	81	83	86	89	93	97	101	106	111	117	123	129	135	141	147	153	158	164	169	174	179	183	187	190	193	195	197	198	199	198	198	196	194	192	189	185	181	177	172	167	161	155
103	107	112	117	122	128	134	140	146	152	158	164	169	175	180	185	190	194	198	201	204	206	207	208	209	208	207	206	204	201	198	194	190	186	181	175	170	164	158	152	146	140	134	128	123	118	113	108	104	100	97	94	92	90	89	89	89	90	91	93	96	99	102	107	111	116	121	127	132	138	144	150	156	162	168	174	179	184	189	193	197	200	203	205	207	208	209	208	208	206	204	202	199	195	191	187	182	177	171	165
113	117	121	126	132	137	143	149	155	161	167	173	179	184	189	194	199	203	207	210	213	215	216	217	218	217	217	215	213	210	207	204	199	195	190	185	179	173	167	161	155	149	143	138	132	127	122	117	113	109	106	103	101	99	98	98	98	99	100	102	105	108	112	116	120	125	130	136	142	148	154	160	166	172	177	183	188	193	198	202	206	210	212	215	216	217	218	218	217	215	214	211	208	204	200	196	191	186	180	175
121	125	130	135	140	145	151	157	163	169	175	181	187	192	198	203	207	212	215	218	221	223	225	226	226	226	225	223	221	219	216	212	208	203	198	193	187	182	176	170	164	158	152	146	140	135	130	125	121	117	114	111	109	108	107	106	106	107	109	111	113	116	120	124	129	134	139	144	150	156	162	168	174	180	186	191	197	202	206	211	215	218	221	223	225	226	226	226	225	224	222	219	216	213	209	204	199	194	189	183
128	132	137	142	147	153	158	164	170	176	182	188	194	200	205	210	215	219	222	226	228	230	232	233	233	233	232	231	229	226	223	219	215	210	205	200	195	189	183	177	171	165	159	153	148	142	137	133	128	125	121	119	116	115	114	113	114	114	116	118	120	124	127	131	136	141	146	151	157	163	169	175	181	187	193	199	204	209	214	218	222	225	228	230	232	233	233	233	232	231	229	226	223	220	216	211	206	201	196	190
134	138	143	148	153	158	164	170	176	182	188	194	200	205	211	216	220	224	228	231	234	236	238	239	239	239	238	236	234	232	229	225	221	216	211	206	200	195	189	183	177	171	165	159	153	148	143	138	134	130	127	124	122	121	120	119	119	120	122	124	126	129	133	137	142	147	152	157	163	169	175	181	187	193	199	204	210	215	219	224	227	231	234	236	238	239	239	239	238	237	235	232	229	226	222	217	212	207	202	196
138	142	147	152	157	163	168	174	180	186	192	198	204	210	215	220	225	229	232	236	238	241	242	243	243	243	242	241	239	236	233	229	225	220	216	210	205	199	193	187	181	175	169	163	158	152	147	143	138	135	131	129	127	125	124	124	124	125	126	128	131	134	137	141	146	151	156	162	167	173	179	185	191	197	203	209	214	219	224	228	232	235	238	240	242	243	243	243	242	241	239	237	234	230	226	221	217	211	206	200
141	145	149	154	160	165	171	177	183	189	195	201	207	212	218	223	227	231	235	238	241	243	245	246	246	246	245	243	241	239	235	232	228	223	218	213	207	202	196	190	184	178	172	166	160	155	150	145	141	137	134	131	129	128	127	126	126	127	129	131	133	136	140	144	149	153	159	164	170	176	182	188	194	200	206	211	217	222	226	231	234	238	240	243	244	245	246	246	245	244	242	239	236	233	229	224	219	214	208	203
142	146	150	155	161	166	172	178	184	190	196	202	208	213	219	223	228	232	236	239	242	244	246	246	247	247	246	244	242	239	236	233	229	224	219	214	208	202	197	191	184	178	173	167	161	156	151	146	142	138	135	132	130	128	127	127	127	128	129	131	134	137	141	145	149	154	160	165	171	177	183	189	195	201	206	212	217	222	227	231	235	239	241	244	245	246	247	247	246	245	243	240	237	233	229	225	220	215	209	204
141	145	149	154	160	165	171	177	183	189	195	201	207	212	218	223	227	231	235	238	241	243	245	246	246	246	245	243	241	239	235	232	228	223	218	213	207	202	196	190	184	178	172	166	160	155	150	145	141	137	134	131	129	128	127	126	126	127	129	131	133	136	140	144	148	153	159	164	170	176	182	188	194	200	206	211	217	222	226	231	234	238	240	243	244	245	246	246	245	244	242	239	236	233	228	224	219	214	208	203
138	142	147	152	157	163	168	174	180	186	192	198	204	210	215	220	225	229	232	236	238	240	242	243	243	243	242	241	239	236	233	229	225	220	216	210	205	199	193	187	181	175	169	163	158	152	147	143	138	135	131	129	126	125	124	123	124	125	126	128	131	134	137	141	146	151	156	162	167	173	179	185	191	197	203	209	214	219	224	228	232	235	238	240	242	243	243	243	242	241	239	237	233	230	226	221	217	211	206	200
134	138	143	148	153	158	164	170	176	182	188	194	200	205	211	216	220	224	228	231	234	236	238	239	239	239	238	236	234	232	229	225	221	216	211	206	200	195	189	183	177	171	165	159	153	148	143	138	134	130	127	124	122	121	120	119	119	120	122	124	126	129	133	137	142	146	152	157	163	169	175	181	187	193	199	204	210	215	219	224	227	231	234	236	237	239	239	239	238	237	235	232	229	226	222	217	212	207	202	196
128	132	137	142	147	153	158	164	170	176	182	188	194	200	205	210	214	219	222	226	228	230	232	233	233	233	232	231	228	226	223	219	215	210	205	200	195	189	183	177	171	165	159	153	148	142	137	133	128	125	121	119	116	115	114	113	114	114	116	118	120	124	127	131	136	141	146	151	157	163	169	175	181	187	193	199	204	209	214	218	222	225	228	230	232	233	233	233	232	231	229	226	223	220	216	211	206	201	196	190
121	125	130	135	140	145	151	157	163	169	175	181	187	192	198	203	207	211	215	218	221	223	225	226	226	226	225	223	221	219	216	212	208	203	198	193	187	182	176	170	164	158	152	146	140	135	130	125	121	117	114	111	109	108	107	106	106	107	109	111	113	116	120	124	129	133	139	144	150	156	162	168	174	180	186	191	197	202	206	211	214	218	221	223	224	226	226	226	225	224	222	219	216	213	209	204	199	194	189	183
112	117	121	126	132	137	143	149	155	161	167	173	179	184	189	194	199	203	207	210	213	215	216	217	218	217	217	215	213	210	207	204	199	195	190	185	179	173	167	161	155	149	143	138	132	127	122	117	113	109	106	103	101	99	98	98	98	99	100	102	105	108	112	116	120	125	130	136	142	148	154	160	166	172	177	183	188	193	198	202	206	209	212	214	216	217	218	218	217	215	213	211	208	204	200	196	191	186	180	175
103	107	112	117	122	128	134	140	146	152	158	164	169	175	180	185	190	194	198	201	204	206	207	208	208	208	207	206	204	201	198	194	190	186	181	175	170	164	158	152	146	140	134	128	123	117	112	108	104	100	97	94	92	90	89	89	89	90	91	93	96	99	102	107	111	116	121	127	132	138	144	150	156	162	168	174	179	184	189	193	197	200	203	205	207	208	208	208	208	206	204	202	199	195	191	187	182	177	171	165
93	98	102	107	112	118	124	130	136	142	148	154	159	165	170	175	180	184	188	191	194	196	197	198	199	198	197	196	194	191	188	184	180	176	171	166	160	154	148	142	136	130	124	119	113	108	103	98	94	90	87	84	82	80	79	79	79	80	81	83	86	89	93	97	101	106	111	117	123	128	134	141	147	152	158	164	169	174	179	183	187	190	193	195	197	198	199	198	198	196	194	192	189	185	181	177	172	167	161	155
83	87	92	97	102	108	114	119	125	132	138	143	149	155	160	165	170	174	178	181	183	186	187	188	188	188	187	186	184	181	178	174	170	166	161	155	150	144	138	132	126	120	114	108	103	97	92	88	84	80	77	74	72	70	69	69	69	70	71	73	76	79	82	86	91	96	101	107	112	118	124	130	136	142	148	154	159	164	169	173	177	180	183	185	187	188	188	188	187	186	184	182	179	175	171	166	162	156	151	145
73	77	82	87	92	98	103	109	115	121	127	133	139	145	150	155	159	164	167	171	173	175	177	178	178	178	177	175	173	171	168	164	160	155	150	145	140	134	128	122	116	110	104	98	92	87	82	78	73	70	66	64	61	60	59	58	59	59	61	63	65	68	72	76	81	86	91	96	102	108	114	120	126	132	138	143	149	154	159	163	167	170	173	175	177	178	178	178	177	176	174	171	168	165	161	156	151	146	141	135
63	67	72	77	82	88	93	99	105	111	117	123	129	135	140	145	149	154	157	161	163	165	167	168	168	168	167	165	163	161	158	154	150	145	140	135	130	124	118	112	106	100	94	88	82	77	72	68	63	60	56	54	51	50	49	48	49	49	51	53	55	58	62	66	71	76	81	86	92	98	104	110	116	122	128	133	139	144	149	153	157	160	163	165	167	168	168	168	167	166	164	161	158	155	151	146	141	136	131	125
53	58	62	67	72	78	84	90	96	102	108	114	120	125	130	135	140	144	148	151	154	156	157	158	159	158	158	156	154	151	148	145	140	136	131	126	120	114	108	102	96	90	84	79	73	68	63	58	54	50	47	44	42	40	39	39	39	40	41	43	46	49	53	57	61	66	71	77	83	89	95	101	107	113	118	124	129	134	139	143	147	150	153	155	157	158	159	159	158	156	154	152	149	145	141	137	132	127	121	116
45	49	54	59	64	69	75	81	87	93	99	105	111	116	122	127	131	136	139	142	145	147	149	150	150	150	149	147	145	143	140	136	132	127	122	117	111	106	100	94	88	82	76	70	64	59	54	49	45	41	38	35	33	32	31	30	30	31	33	35	37	40	44	48	53	58	63	68	74	80	86	92	98	104	110	115	121	126	130	135	139	142	145	147	149	150	150	150	149	148	146	143	140	137	133	128	123	118	113	107
37	41	46	51	56	62	68	74	80	86	92	98	103	109	114	119	124	128	132	135	138	140	141	142	143	142	141	140	138	135	132	128	124	120	115	109	104	98	92	86	80	74	68	62	57	52	47	42	38	34	31	28	26	24	23	23	23	24	25	27	30	33	37	41	45	50	55	61	66	72	78	84	90	96	102	108	113	118	123	127	131	134	137	139	141	142	143	142	142	140	138	136	133	129	125	121	116	111	105	99
31	35	40	45	50	56	61	67	73	79	85	91	97	103	108	113	118	122	125	129	131	134	135	136	136	136	135	134	132	129	126	122	118	113	109	103	98	92	86	80	74	68	62	56	51	45	40	36	31	28	24	22	20	18	17	17	17	18	19	21	24	27	30	34	39	44	49	55	60	66	72	78	84	90	96	102	107	112	117	121	125	128	131	133	135	136	136	136	135	134	132	130	127	123	119	114	110	104	99	93
26	31	35	40	45	51	57	63	69	75	81	87	92	98	103	108	113	117	121	124	127	129	130	131	132	131	130	129	127	124	121	117	113	109	104	99	93	87	81	75	69	63	57	52	46	41	36	31	27	23	20	17	15	13	12	12	12	13	14	16	19	22	26	30	34	39	44	50	56	61	67	73	80	85	91	97	102	107	112	116	120	123	126	128	130	131	132	131	131	129	127	125	122	118	114	110	105	100	94	88
23	27	32	37	42	48	54	60	66	72	78	84	89	95	100	105	110	114	118	121	124	126	127	128	128	128	127	126	124	121	118	114	110	106	101	95	90	84	78	72	66	60	54	48	43	37	32	28	24	20	17	14	12	10	9	9	9	10	11	13	16	19	22	27	31	36	41	47	52	58	64	70	76	82	88	94	99	104	109	113	117	120	123	125	127	128	128	128	128	126	124	122	119	115	111	107	102	97	91	85
22	26	31	36	41	46	52	58	64	70	76	82	88	93	99	104	108	113	116	119	122	124	126	127	127	127	126	124	122	120	117	113	109	104	99	94	88	83	77	71	65	59	53	47	41	36	31	26	22	18	15	12	10	9	8	7	7	8	10	12	14	17	21	25	30	35	40	45	51	57	63	69	75	81	87	92	98	103	107	112	116	119	122	124	126	127	127	127	126	125	123	120	117	114	110	105	100	95	90	84
22	26	31	36	41	47	53	59	65	71	77	83	88	94	99	104	109	113	117	120	123	125	126	127	127	127	126	125	123	120	117	113	109	105	100	94	89	83	77	71	65	59	53	47	42	36	31	27	23	19	16	13	11	9	8	8	8	9	10	12	15	18	21	25	30	35	40	46	51	57	63	69	75	81	87	93	98	103	108	112	116	119	122	124	126	127	127	127	127	125	123	121	118	114	110	106	101	95	90	84
24	28	33	38	43	49	55	61	67	73	79	85	90	96	101	106	111	115	119	122	125	127	128	129	130	129	128	127	125	122	119	115	111	107	102	96	91	85	79	73	67	61	55	49	44	39	34	29	25	21	18	15	13	11	10	10	10	11	12	14	17	20	24	28	32	37	42	48	54	59	65	71	77	83	89	95	100	105	110	114	118	121	124	126	128	129	130	129	129	127	125	123	120	116	112	108	103	98	92	86
28	32	37	42	47	53	58	64	70	76	83	88	94	100	105	110	115	119	123	126	128	131	132	133	133	133	132	131	129	126	123	119	115	110	106	100	95	89	83	77	71	65	59	53	48	42	37	33	29	25	21	19	17	15	14	14	14	15	16	18	21	24	27	31	36	41	46	52	57	63	69	75	81	87	93	99	104	109	114	118	122	125	128	130	132	133	133	133	132	131	129	127	124	120	116	111	107	101	96	90
33	38	42	47	53	58	64	70	76	82	88	94	100	105	110	115	120	124	128	131	134	136	137	138	139	138	138	136	134	131	128	125	120	116	111	106	100	94	88	82	76	70	64	59	53	48	43	38	34	30	27	24	22	20	19	19	19	20	21	23	26	29	33	37	41	46	51	57	63	69	75	81	87	93	98	104	109	114	119	123	127	131	133	136	137	138	139	139	138	136	134	132	129	125	121	117	112	107	101	96
40	44	49	54	59	65	71	77	83	89	95	101	106	112	117	122	127	131	135	138	141	143	144	145	146	145	144	143	141	138	135	131	127	123	118	112	107	101	95	89	83	77	71	65	60	55	50	45	41	37	34	31	29	27	26	26	26	27	28	30	33	36	39	44	48	53	58	64	69	75	81	87	93	99	105	111	116	121	126	130	134	137	140	142	144	145	146	145	145	143	141	139	136	132	128	124	119	114	108	102
48	52	57	62	67	73	79	85	91	97	103	109	114	120	125	130	135	139	143	146	149	151	152	153	154	153	152	151	149	146	143	139	135	131	126	120	115	109	103	97	91	85	79	73	68	63	58	53	49	45	42	39	37	35	34	34	34	35	36	38	41	44	48	52	56	61	66	72	77	83	89	95	101	107	113	119	124	129	134	138	142	145	148	150	152	153	154	153	153	151	149	147	144	140	136	132	127	122	116	110
57	61	66	71	76	82	88	94	100	106	112	118	123	129	134	139	144	148	152	155	158	160	161	162	163	162	161	160	158	155	152	148	144	140	135	129	124	118	112	106	100	94	88	82	77	72	67	62	58	54	51	48	46	44	43	43	43	44	45	47	50	53	56	61	65	70	75	81	86	92	98	104	110	116	122	128	133	138	143	147	151	154	157	159	161	162	163	162	162	160	158	156	153	149	145	141	136	131	125	119
67	71	76	81	86	92	97	103	109	115	121	127	133	139	144	149	154	158	161	165	167	169	171	172	172	172	171	170	168	165	162	158	154	149	144	139	134	128	122	116	110	104	98	92	87	81	76	72	67	64	60	58	55	54	53	52	53	53	55	57	59	63	66	70	75	80	85	90	96	102	108	114	120	126	132	138	143	148	153	157	161	164	167	169	171	172	172	172	171	170	168	165	162	159	155	150	145	140	135	129
77	81	86	91	96	102	108	113	119	126	132	137	143	149	154	159	164	168	172	175	177	180	181	182	182	182	181	180	178	175	172	168	164	160	155	149	144	138	132	126	120	114	108	102	97	91	86	82	78	74	71	68	66	64	63	63	63	64	65	67	70	73	76	80	85	90	95	101	106	112	118	124	130	136	142	148	153	158	163	167	171	174	177	179	181	182	182	182	181	180	178	176	173	169	165	160	156	150	145	139
87	92	96	101	106	112	118	124	130	136	142	148	154	159	164	169	174	178	182	185	188	190	191	192	193	192	192	190	188	185	182	178	174	170	165	160	154	148	142	136	130	124	118	113	107	102	97	92	88	84	81	78	76	74	73	73	73	74	75	77	80	83	87	91	95	100	105	111	117	123	129	135	141	147	152	158	163	168	173	177	181	184	187	189	191	192	193	192	192	190	188	186	183	179	175	171	166	161	155	149
98	102	106	111	117	122	128	134	140	146	152	158	164	169	174	179	184	188	192	195	198	200	201	202	203	202	202	200	198	195	192	189	184	180	175	170	164	158	152	146	140	134	128	123	117	112	107	102	98	94	91	88	86	84	83	83	83	84	85	87	90	93	97	101	105	110	115	121	127	133	139	145	151	157	162	168	173	178	183	187	191	195	197	200	201	202	203	203	202	200	199	196	193	189	185	181	176	171	165	160
107	111	116	121	126	132	138	143	149	156	162	167	173	179	184	189	194	198	202	205	207	210	211	212	212	212	211	210	208	205	202	198	194	190	185	179	174	168	162	156	150	144	138	132	127	121	116	112	108	104	101	98	96	94	93	93	93	94	95	97	100	103	106	110	115	120	125	131	136	142	148	154	160	166	172	178	183	188	193	197	201	204	207	209	211	212	212	212	211	210	208	206	203	199	195	191	186	180	175	169
116	120	125	130	135	141	146	152	158	164	170	176	182	188	193	198	203	207	210	214	216	218	220	221	221	221	220	219	217	214	211	207	203	198	193	188	183	177	171	165	159	153	147	141	136	130	125	121	116	113	109	107	104	103	102	101	102	103	104	106	109	112	115	119	124	129	134	140	145	151	157	163	169	175	181	187	192	197	202	206	210	213	216	218	220	221	221	221	220	219	217	215	211	208	204	199	195	189	184	178
124	128	133	138	143	149	154	160	166	172	178	184	190	196	201	206	210	215	218	222	224	226	228	229	229	229	228	227	224	222	219	215	211	206	201	196	191	185	179	173	167	161	155	149	144	138	133	129	124	121	117	115	112	111	110	109	110	110	112	114	116	120	123	127	132	137	142	147	153	159	165	171	177	183	189	194	200	205	210	214	218	221	224	226	228	229	229	229	228	227	225	222	219	216	212	207	202	197	192	186
131	135	139	144	150	155	161	167	173	179	185	191	197	202	207	212	217	221	225	228	231	233	235	235	236	236	235	233	231	228	225	222	217	213	208	203	197	191	186	180	173	167	162	156	150	145	140	135	131	127	124	121	119	117	116	116	116	117	118	120	123	126	130	134	138	143	149	154	160	166	172	178	184	190	195	201	206	211	216	220	224	228	230	233	234	235	236	236	235	234	232	229	226	222	218	214	209	204	198	193
136	140	145	150	155	160	166	172	178	184	190	196	202	207	213	218	222	226	230	233	236	238	240	241	241	241	240	238	236	234	230	227	223	218	213	208	202	197	191	185	179	173	167	161	155	150	145	140	136	132	129	126	124	123	122	121	121	122	124	126	128	131	135	139	144	148	154	159	165	171	177	183	189	195	201	206	212	217	221	226	229	233	236	238	239	241	241	241	240	239	237	234	231	228	224	219	214	209	204	198
139	144	148	153	158	164	170	176	182	188	194	200	205	211	216	221	226	230	234	237	240	242	243	244	245	244	243	242	240	237	234	230	226	222	217	212	206	200	194	188	182	176	170	165	159	154	149	144	140	136	133	130	128	126	125	125	125	126	127	129	132	135	139	143	147	152	157	163	169	174	180	186	193	198	204	210	215	220	225	229	233	236	239	241	243	244	245	244	244	242	240	238	235	231	227	223	218	213	207	201
141	145	150	155	160	166	172	178	184	190	196	202	207	213	218	223	228	232	236	239	242	244	245	246	247	246	245	244	242	239	236	232	228	224	219	213	208	202	196	190	184	178	172	166	161	156	151	146	142	138	135	132	130	128	127	127	127	128	129	131	134	137	140	145	149	154	159	165	170	176	182	188	194	200	206	212	217	222	227	231	235	238	241	243	245	246	246	246	246	244	242	240	237	233	229	225	220	215	209	203
141	146	150	155	160	166	172	178	184	190	196	202	208	213	218	223	228	232	236	239	242	244	245	246	247	246	246	244	242	239	236	232	228	224	219	214	208	202	196	190	184	178	172	167	161	156	151	146	142	138	135	132	130	128	127	127	127	128	129	131	134	137	141	145	149	154	159	165	171	177	183	189	195	201	206	212	217	222	227	231	235	238	241	243	245	246	247	246	246	244	242	240	237	233	229	225	220	215	209	203
140	144	149	154	159	164	170	176	182	188	194	200	206	211	217	222	226	231	234	237	240	242	244	245	245	245	244	242	240	238	235	231	227	222	217	212	206	201	195	189	183	177	171	165	159	154	149	144	140	136	133	130	128	127	126	125	125	126	128	130	132	135	139	143	148	153	158	163	169	175	181	187	193	199	205	210	216	221	225	230	234	237	240	242	244	245	245	245	244	243	241	238	235	232	228	223	218	213	208	202
137	141	145	150	156	161	167	173	179	185	191	197	203	208	213	218	223	227	231	234	237	239	240	241	242	241	241	239	237	234	231	228	223	219	214	209	203	197	191	185	179	173	167	162	156	151	146	141	137	133	130	127	125	123	122	122	122	123	124	126	129	132	136	140	144	149	154	160	166	172	178	184	190	196	201	207	212	217	222	226	230	234	236	239	240	241	242	242	241	239	238	235	232	228	224	220	215	210	204	199
132	136	140	145	151	156	162	168	174	180	186	192	198	203	209	213	218	222	226	229	232	234	236	236	237	237	236	234	232	229	226	223	219	214	209	204	198	192	187	181	174	168	163	157	151	146	141	136	132	128	125	122	120	118	117	117	117	118	119	121	124	127	131	135	139	144	150	155	161	167	173	179	185	191	197	202	207	213	217	221	225	229	231	234	235	236	237	237	236	235	233	230	227	223	219	215	210	205	199	194
125	129	134	139	144	150	156	161	168	174	180	185	191	197	202	207	212	216	220	223	225	228	229	230	230	230	229	228	226	223	220	216	212	208	203	197	192	186	180	174	168	162	156	150	145	139	134	130	126	122	119	116	114	112	111	111	111	112	113	115	118	121	124	128	133	138	143	149	154	160	166	172	178	184	190	196	201	206	211	215	219	222	225	227	229	230	230	230	229	228	226	224	221	217	213	209	204	198	193	187
118	122	126	131	137	142	148	154	160	166	172	178	184	189	194	199	204	208	212	215	218	220	221	222	223	222	222	220	218	215	212	209	204	200	195	190	184	178	172	166	160	154	148	143	137	132	127	122	118	114	111	108	106	104	103	103	103	104	105	107	110	113	117	121	125	130	135	141	147	153	159	165	171	177	182	188	193	198	203	207	211	215	217	220	221	222	223	223	222	220	219	216	213	209	205	201	196	191	185	180
109	113	118	123	128	133	139	145	151	157	163	169	175	180	186	191	195	199	203	206	209	211	213	214	214	214	213	211	209	207	204	200	196	191	186	181	175	170	164	158	152	146	140	134	128	123	118	113	109	105	102	99	97	96	95	94	94	95	97	99	101	104	108	112	117	121	127	132	138	144	150	156	162	168	174	179	185	190	194	199	202	206	209	211	212	214	214	214	213	212	210	207	204	201	197	192	187	182	177	171
99	103	108	113	118	124	130	136	142	148	154	160	165	171	176	181	186	190	194	197	200	202	203	204	204	204	203	202	200	197	194	190	186	182	177	171	166	160	154	148	142	136	130	124	119	114	108	104	100	96	93	90	88	86	85	85	85	86	87	89	92	95	98	103	107	112	117	123	128	134	140	146	152	158	164	170	175	180	185	189	193	196	199	201	203	204	204	204	204	202	200	198	195	191	187	183	178	173	167	161
89	93	98	103	108	114	120	126	132	138	144	150	155	161	166	171	176	180	184	187	190	192	193	194	194	194	193	192	190	187	184	180	176	172	167	161	156	150	144	138	132	126	120	114	109	103	98	94	90	86	83	80	78	76	75	75	75	76	77	79	82	85	88	92	97	102	107	113	118	124	130	136	142	148	154	160	165	170	175	179	183	186	189	191	193	194	194	194	194	192	190	188	185	181	177	173	168	162	157	151
79	83	88	93	98	104	109	115	121	127	133	139	145	151	156	161	165	170	173	177	179	181	183	184	184	184	183	182	179	177	174	170	166	161	156	151	146	140	134	128	122	116	110	104	99	93	88	84	79	76	72	70	67	66	65	64	65	65	67	69	71	75	78	82	87	92	97	102	108	114	120	126	132	138	144	149	155	160	165	169	173	176	179	181	183	184	184	184	183	182	180	177	174	171	167	162	157	152	147	141
69	73	78	83	88	93	99	105	111	117	123	129	135	140	146	151	155	159	163	166	169	171	173	174	174	174	173	171	169	167	163	160	156	151	146	141	135	130	124	118	112	106	100	94	88	83	78	73	69	65	62	59	57	56	55	54	54	55	57	59	61	64	68	72	77	81	87	92	98	104	110	116	122	128	134	139	145	150	154	159	162	166	169	171	172	174	174	174	173	172	170	167	164	161	157	152	147	142	137	131
59	63	68	73	78	84	89	95	101	107	113	119	125	131	136	141	145	150	153	157	159	161	163	164	164	164	163	162	159	157	154	150	146	141	136	131	126	120	114	108	102	96	90	84	79	73	68	64	59	56	52	50	47	46	45	44	45	45	47	49	51	55	58	62	67	72	77	82	88	94	100	106	112	118	124	129	135	140	145	149	153	156	159	161	163	164	164	164	163	162	160	157	154	151	147	142	137	132	127	121
50	54	59	64	69	74	80	86	92	98	104	110	116	121	127	132	136	140	144	147	150	152	154	155	155	155	154	152	150	148	145	141	137	132	127	122	116	111	105	99	93	87	81	75	69	64	59	54	50	46	43	40	38	37	36	35	35	36	38	40	42	45	49	53	58	63	68	73	79	85	91	97	103	109	115	120	126	131	135	140	143	147	150	152	154	155	155	155	154	153	151	148	145	142	138	133	128	123	118	112
42	46	50	55	61	66	72	78	84	90	96	102	108	113	119	124	128	132	136	139	142	144	146	147	147	147	146	144	142	140	136	133	129	124	119	114	108	102	97	91	85	79	73	67	61	56	51	46	42	38	35	32	30	28	27	27	27	28	30	32	34	37	41	45	49	54	60	65	71	77	83	89	95	101	107	112	117	123	127	131	135	139	141	144	145	146	147	147	146	145	143	140	137	133	129	125	120	115	109	104
35	39	43	48	54	59	65	71	77	83	89	95	101	106	112	116	121	125	129	132	135	137	139	139	140	140	139	137	135	132	129	126	122	117	112	107	101	95	90	84	78	71	66	60	54	49	44	39	35	31	28	25	23	21	20	20	20	21	22	24	27	30	34	38	42	47	53	58	64	70	76	82	88	94	100	105	110	116	120	124	128	132	134	137	138	139	140	140	139	138	136	133	130	126	122	118	113	108	102	97
29	33	38	43	48	54	59	65	71	77	83	89	95	101	106	111	115	120	123	127	129	131	133	134	134	134	133	132	129	127	124	120	116	111	106	101	96	90	84	78	72	66	60	54	49	43	38	34	29	26	22	20	17	16	15	14	15	15	17	19	21	25	28	32	37	42	47	52	58	64	70	76	82	88	94	99	105	110	115	119	123	126	129	131	133	134	134	134	133	132	130	127	124	121	117	112	107	102	97	91
25	29	34	39	44	49	55	61	67	73	79	85	91	97	102	107	111	116	119	122	125	127	129	130	130	130	129	127	125	123	120	116	112	107	102	97	92	86	80	74	68	62	56	50	44	39	34	29	25	21	18	15	13	12	11	10	11	11	13	15	17	20	24	28	33	38	43	48	54	60	66	72	78	84	90	95	101	106	110	115	119	122	125	127	129	130	130	130	129	128	126	123	120	117	113	108	103	98	93	87
22	27	31	36	41	47	53	59	65	71	77	83	89	94	99	104	109	113	117	120	123	125	126	127	128	127	127	125	123	120	117	114	109	105	100	95	89	83	77	71	65	59	53	48	42	37	32	27	23	19	16	13	11	9	8	8	8	9	10	12	15	18	22	26	30	35	40	46	52	58	64	70	76	82	87	93	98	103	108	112	116	119	122	124	126	127	128	128	127	125	123	121	118	114	110	106	101	96	90	85
22	26	31	36	41	46	52	58	64	70	76	82	88	93	99	104	108	112	116	119	122	124	126	127	127	127	126	124	122	120	117	113	109	104	99	94	88	83	77	71	65	59	53	47	41	36	31	26	22	18	15	12	10	9	8	7	7	8	10	12	14	17	21	25	30	34	40	45	51	57	63	69	75	81	87	92	98	103	107	112	115	119	122	124	125	127	127	127	126	125	123	120	117	114	110	105	100	95	90	84
23	27	32	37	42	47	53	59	65	71	77	83	89	95	100	105	109	114	117	120	123	125	127	128	128	128	127	125	123	121	118	114	110	105	100	95	90	84	78	72	66	60	54	48	42	37	32	27	23	19	16	13	11	10	9	8	9	9	11	13	15	18	22	26	31	36	41	46	52	58	64	70	76	82	88	93	99	104	108	113	117	120	123	125	127	128	128	128	127	126	124	121	118	115	111	106	101	96	91	85
26	30	34	39	45	50	56	62	68	74	80	86	92	97	103	108	112	116	120	123	126	128	130	131	131	131	130	128	126	124	120	117	113	108	103	98	92	87	81	75	69	63	57	51	45	40	35	30	26	22	19	16	14	13	12	11	11	12	14	16	18	21	25	29	33	38	44	49	55	61	67	73	79	85	91	96	102	107	111	116	119	123	125	128	129	130	131	131	130	129	127	124	121	118	113	109	104	99	93	88
30	34	39	44	49	55	61	66	72	79	85	90	96	102	107	112	117	121	125	128	130	133	134	135	135	135	134	133	131	128	125	121	117	113	108	102	97	91	85	79	73	67	61	55	50	44	39	35	31	27	23	21	19	17	16	16	16	17	18	20	23	26	29	33	38	43	48	54	59	65	71	77	83	89	95	101	106	111	116	120	124	127	130	132	134	135	135	135	134	133	131	129	126	122	118	113	109	103	98	92
36	40	45	50	55	61	66	72	78	84	91	96	102	108	113	118	123	127	131	134	136	139	140	141	141	141	140	139	137	134	131	127	123	118	114	108	103	97	91	85	79	73	67	61	56	50	45	41	37	33	29	27	25	23	22	22	22	23	24	26	29	32	35	39	44	49	54	60	65	71	77	83	89	95	101	107	112	117	122	126	130	133	136	138	140	141	141	141	140	139	137	135	132	128	124	119	115	109	104	98
43	48	52	57	62	68	74	80	86	92	98	104	110	115	120	125	130	134	138	141	144	146	147	148	149	148	148	146	144	141	138	135	130	126	121	116	110	104	98	92	86	80	74	69	63	58	53	48	44	40	37	34	32	30	29	29	29	30	31	33	36	39	43	47	51	56	61	67	73	79	85	91	97	103	108	114	119	124	129	133	137	140	143	145	147	148	149	149	148	146	144	142	139	135	131	127	122	117	111	106
52	56	61	66	71	76	82	88	94	100	106	112	118	124	129	134	138	143	146	150	152	154	156	157	157	157	156	154	152	150	147	143	139	134	129	124	119	113	107	101	95	89	83	77	71	66	61	56	52	49	45	43	40	39	38	37	38	38	40	42	44	47	51	55	60	65	70	75	81	87	93	99	105	111	117	122	128	133	137	142	146	149	152	154	156	157	157	157	156	155	153	150	147	144	140	135	130	125	120	114
61	65	70	75	80	86	92	98	104	110	116	122	127	133	138	143	148	152	156	159	162	164	165	166	166	166	165	164	162	159	156	152	148	144	139	133	128	122	116	110	104	98	92	86	81	75	70	66	62	58	55	52	50	48	47	47	47	48	49	51	54	57	60	64	69	74	79	85	90	96	102	108	114	120	126	132	137	142	147	151	155	158	161	163	165	166	166	166	166	164	162	160	157	153	149	145	140	134	129	123
71	75	80	85	90	96	102	107	113	119	126	131	137	143	148	153	158	162	166	169	171	174	175	176	176	176	175	174	172	169	166	162	158	154	149	143	138	132	126	120	114	108	102	96	91	85	80	76	72	68	64	62	60	58	57	57	57	58	59	61	64	67	70	74	79	84	89	95	100	106	112	118	124	130	136	142	147	152	157	161	165	168	171	173	175	176	176	176	175	174	172	170	167	163	159	154	150	144	139	133
81	86	90	95	100	106	112	118	124	130	136	142	147	153	158	163	168	172	176	179	182	184	185	186	187	186	185	184	182	179	176	172	168	164	159	154	148	142	136	130	124	118	112	107	101	96	91	86	82	78	75	72	70	68	67	67	67	68	69	71	74	77	81	85	89	94	99	105	111	116	122	128	135	140	146	152	157	162	167	171	175	178	181	183	185	186	187	186	186	184	182	180	177	173	169	165	160	155	149	143
92	96	100	105	111	116	122	128	134	140	146	152	158	163	169	174	178	182	186	189	192	194	196	197	197	197	196	194	192	190	186	183	179	174	169	164	158	152	147	141	135	128	123	117	111	106	101	96	92	88	85	82	80	78	77	77	77	78	79	81	84	87	91	95	99	104	110	115	121	127	133	139	145	151	157	162	167	173	177	181	185	189	191	194	195	196	197	197	196	195	193	190	187	183	179	175	170	165	159	154
102	106	110	115	121	126	132	138	144	150	156	162	168	173	178	183	188	192	196	199	202	204	206	206	207	207	206	204	202	199	196	193	188	184	179	174	168	162	157	151	144	138	133	127	121	116	111	106	102	98	95	92	90	88	87	87	87	88	89	91	94	97	101	105	109	114	119	125	131	137	143	149	155	161	166	172	177	182	187	191	195	199	201	204	205	206	207	207	206	204	203	200	197	193	189	185	180	175	169	164
111	115	120	125	130	136	141	147	153	159	165	171	177	183	188	193	197	202	205	209	211	213	215	216	216	216	215	214	211	209	206	202	198	193	188	183	178	172	166	160	154	148	142	136	130	125	120	116	111	108	104	102	99	98	97	96	97	97	99	101	103	106	110	114	119	124	129	134	140	146	152	158	164	170	176	181	187	192	197	201	205	208	211	213	215	216	216	216	215	214	212	209	206	203	199	194	189	184	179	173
119	124	128	133	138	144	150	156	162	168	174	180	185	191	196	201	206	210	214	217	220	222	223	224	225	224	223	222	220	217	214	210	206	202	197	192	186	180	174	168	162	156	150	145	139	134	129	124	120	116	113	110	108	106	105	105	105	106	107	109	112	115	119	123	127	132	137	143	149	155	161	167	173	179	184	190	195	200	205	209	213	216	219	221	223	224	225	224	224	222	220	218	215	211	207	203	198	193	187	181
127	131	136	141	146	151	157	163	169	175	181	187	193	198	204	209	213	217	221	224	227	229	231	232	232	232	231	229	227	225	222	218	214	209	204	199	193	188	182	176	170	164	158	152	146	141	136	131	127	123	120	117	115	114	113	112	112	113	115	117	119	122	126	130	135	140	145	150	156	162	168	174	180	186	192	197	203	208	212	217	220	224	227	229	231	232	232	232	231	230	228	225	222	219	215	210	205	200	195	189
133	137	142	147	152	157	163	169	175	181	187	193	199	205	210	215	219	224	227	230	233	235	237	238	238	238	237	235	233	231	228	224	220	215	210	205	200	194	188	182	176	170	164	158	152	147	142	137	133	129	126	123	121	120	119	118	119	119	121	123	125	128	132	136	141	146	151	156	162	168	174	180	186	192	198	203	209	214	218	223	227	230	233	235	237	238	238	238	237	236	234	231	228	225	221	216	211	206	201	195
137	142	146	151	156	162	168	174	180	186	192	198	204	209	214	219	224	228	232	235	238	240	241	242	243	242	242	240	238	235	232	229	224	220	215	210	204	198	192	186	180	174	168	163	157	152	147	142	138	134	131	128	126	124	123	123	123	124	125	127	130	133	137	141	145	150	155	161	167	173	179	185	191	197	202	208	213	218	223	227	231	234	237	239	241	242	243	243	242	240	238	236	233	229	225	221	216	211	205	200
140	145	149	154	159	165	171	177	183	189	195	201	206	212	217	222	227	231	235	238	241	243	244	245	246	245	244	243	241	238	235	231	227	223	218	213	207	201	195	189	183	177	171	166	160	155	150	145	141	137	134	131	129	127	126	126	126	127	128	130	133	136	140	144	148	153	158	164	170	175	181	187	194	199	205	211	216	221	226	230	234	237	240	242	244	245	246	245	245	243	241	239	236	232	228	224	219	214	208	202
142	146	150	155	161	166	172	178	184	190	196	202	208	213	218	223	228	232	236	239	242	244	246	246	247	247	246	244	242	239	236	233	228	224	219	214	208	202	197	191	184	178	172	167	161	156	151	146	142	138	135	132	130	128	127	127	127	128	129	131	134	137	141	145	149	154	159	165	171	177	183	189	195	201	206	212	217	222	227	231	235	239	241	244	245	246	247	247	246	244	243	240	237	233	229	225	220	215	209	204
141	145	150	155	160	166	171	177	183	189	195	201	207	213	218	223	227	232	235	239	241	243	245	246	246	246	245	244	242	239	236	232	228	223	218	213	208	202	196	190	184	178	172	166	161	155	150	146	141	138	134	132	129	128	127	126	127	127	129	131	133	137	140	144	149	154	159	164	170	176	182	188	194	200	206	212	217	222	227	231	235	238	241	243	245	246	246	246	245	244	242	239	236	233	229	224	219	214	209	203
139	143	147	152	158	163	169	175	181	187	193	199	205	210	216	221	225	229	233	236	239	241	243	244	244	244	243	241	239	237	233	230	226	221	216	211	205	200	194	188	182	176	170	164	158	153	148	143	139	135	132	129	127	125	124	124	124	125	127	129	131	134	138	142	146	151	157	162	168	174	180	186	192	198	204	209	215	220	224	229	232	236	238	241	242	243	244	244	243	242	240	237	234	231	226	222	217	212	206	201
135	139	143	148	154	159	165	171	177	183	189	195	201	206	212	217	221	225	229	232	235	237	239	240	240	240	239	237	235	233	229	226	222	217	212	207	201	196	190	184	178	172	166	160	154	149	144	139	135	131	128	125	123	122	121	120	120	121	123	125	127	130	134	138	142	147	153	158	164	170	176	182	188	194	200	205	211	216	220	225	228	232	234	237	238	239	240	240	239	238	236	233	230	227	222	218	213	208	202	197
129	133	138	143	148	154	160	165	171	177	184	189	195	201	206	211	216	220	224	227	229	232	233	234	234	234	233	232	230	227	224	220	216	212	207	201	196	190	184	178	172	166	160	154	149	143	138	134	130	126	122	120	118	116	115	115	115	116	117	119	122	125	128	132	137	142	147	153	158	164	170	176	182	188	194	200	205	210	215	219	223	226	229	231	233	234	234	234	233	232	230	228	225	221	217	212	208	202	197	191
122	126	131	136	141	147	153	158	164	171	177	182	188	194	199	204	209	213	217	220	222	225	226	227	227	227	226	225	223	220	217	213	209	205	200	194	189	183	177	171	165	159	153	147	142	136	131	127	123	119	116	113	111	109	108	108	108	109	110	112	115	118	121	125	130	135	140	146	151	157	163	169	175	181	187	193	198	203	208	212	216	219	222	224	226	227	227	227	226	225	223	221	218	214	210	206	201	195	190	184
114	118	123	128	133	139	144	150	156	162	168	174	180	186	191	196	201	205	208	212	214	216	218	219	219	219	218	217	215	212	209	205	201	196	191	186	181	175	169	163	157	151	145	139	134	128	123	119	114	111	107	105	102	101	100	99	100	101	102	104	107	110	113	117	122	127	132	137	143	149	155	161	167	173	179	185	190	195	200	204	208	211	214	216	218	219	219	219	218	217	215	213	209	206	202	197	193	187	182	176
105	109	114	119	124	130	135	141	147	153	159	165	171	177	182	187	191	196	199	203	205	207	209	210	210	210	209	208	205	203	200	196	192	187	182	177	172	166	160	154	148	142	136	130	125	119	114	110	105	102	98	96	93	92	91	90	91	91	93	95	97	101	104	108	113	118	123	128	134	140	146	152	158	164	170	175	181	186	191	195	199	202	205	207	209	210	210	210	209	208	206	203	200	197	193	188	183	178	173	167
95	99	104	109	114	120	126	131	138	144	150	155	161	167	172	177	182	186	190	193	195	198	199	200	200	200	199	198	196	193	190	186	182	178	173	167	162	156	150	144	138	132	126	120	115	109	104	100	96	92	89	86	84	82	81	81	81	82	83	85	88	91	94	98	103	108	113	119	124	130	136	142	148	154	160	166	171	176	181	185	189	192	195	197	199	200	200	200	199	198	196	194	191	187	183	179	174	168	163	157
85	89	94	99	104	110	115	121	127	133	139	145	151	157	162	167	172	176	179	183	185	187	189	190	190	190	189	188	186	183	180	176	172	167	162	157	152	146	140	134	128	122	116	110	105	99	94	90	85	82	78	76	73	72	71	70	71	71	73	75	77	81	84	88	93	98	103	108	114	120	126	132	138	144	150	156	161	166	171	175	179	182	185	187	189	190	190	190	189	188	186	183	180	177	173	168	163	158	153	147
75	79	84	88	94	99	105	111	117	123	129	135	141	146	152	157	161	165	169	172	175	177	179	180	180	180	179	177	175	173	169	166	162	157	152	147	141	136	130	124	118	112	106	100	94	89	84	79	75	71	68	65	63	62	61	60	60	61	63	65	67	70	74	78	83	87	93	98	104	110	116	122	128	134	140	145	151	156	160	165	168	172	175	177	178	179	180	180	179	178	176	173	170	167	163	158	153	148	143	137
65	69	73	78	84	89	95	101	107	113	119	125	131	136	142	147	151	155	159	162	165	167	169	170	170	170	169	167	165	163	159	156	152	147	142	137	131	126	120	114	108	102	96	90	84	79	74	69	65	61	58	55	53	52	51	50	50	51	53	55	57	60	64	68	72	77	83	88	94	100	106	112	118	124	130	135	141	146	150	155	158	162	164	167	168	169	170	170	169	168	166	163	160	157	152	148	143	138	132	127
