P2
100	100
255
145	144	143	142	141	140	139	138	137	136	135	134	133	131	131	130	129	128	127	127	126	126	126	125	125	125	125	126	126	127	127	128	129	129	130	131	132	133	135	136	137	138	139	140	141	142	143	144	145	145	146	146	147	147	147	147	147	147	147	147	146	146	145	144	143	142	141	140	139	138	137	136	135	134	133	132	131	130	129	128	127	127	126	126	126	125	125	125	125	126	126	127	127	128	128	129	130	131	132	133
144	143	142	141	140	139	138	137	136	135	134	132	131	130	129	128	128	127	126	126	125	125	124	124	124	124	124	125	125	125	126	127	128	128	129	130	131	132	133	135	136	137	138	139	140	141	142	143	143	144	145	145	146	146	146	146	146	146	146	145	145	144	144	143	142	141	140	139	138	137	136	135	134	133	132	131	130	129	128	127	126	126	125	125	124	124	124	124	124	125	125	125	126	127	127	128	129	130	131	132
142	141	141	140	139	138	137	135	134	133	132	131	130	129	128	127	126	125	125	124	124	123	123	123	123	123	123	123	124	124	125	125	126	127	128	129	130	131	132	133	134	135	136	138	139	140	140	141	142	143	143	144	144	145	145	145	145	145	144	144	144	143	142	142	141	140	139	138	137	136	135	133	132	131	130	129	128	127	126	126	125	124	124	123	123	123	123	123	123	123	124	124	125	125	126	127	128	129	130	131
141	140	139	138	137	136	135	134	133	132	131	129	128	127	126	125	125	124	123	123	122	122	121	121	121	121	121	122	122	122	123	124	125	125	126	127	128	129	130	132	133	134	135	136	137	138	139	140	141	141	142	142	143	143	143	143	143	143	143	142	142	141	141	140	139	138	137	136	135	134	133	132	131	130	129	128	127	126	125	124	123	123	122	122	121	121	121	121	121	122	122	122	123	124	124	125	126	127	128	129
139	138	137	136	135	134	133	132	131	130	129	128	127	126	125	124	123	122	121	121	120	120	120	119	119	119	120	120	120	121	121	122	123	124	125	125	127	128	129	130	131	132	133	134	135	136	137	138	139	139	140	141	141	141	141	142	141	141	141	141	140	140	139	138	137	136	136	135	133	132	131	130	129	128	127	126	125	124	123	122	122	121	120	120	120	119	119	119	120	120	120	121	121	122	123	123	124	125	126	127
137	136	135	134	133	132	131	130	129	128	127	126	125	124	123	122	121	120	120	119	118	118	118	118	118	118	118	118	118	119	119	120	121	122	123	124	125	126	127	128	129	130	131	132	133	134	135	136	137	138	138	139	139	139	140	140	140	139	139	139	138	138	137	136	136	135	134	133	132	131	129	128	127	126	125	124	123	122	121	120	120	119	119	118	118	118	118	118	118	118	118	119	119	120	121	122	122	123	124	126
135	134	133	133	132	131	129	128	127	126	125	124	123	122	121	120	119	118	118	117	117	116	116	116	116	116	116	116	117	117	118	118	119	120	121	122	123	124	125	126	127	128	129	130	131	132	133	134	135	136	136	137	137	138	138	138	138	138	137	137	136	136	135	134	134	133	132	131	130	129	127	126	125	124	123	122	121	120	119	118	118	117	117	116	116	116	116	116	116	116	116	117	117	118	119	120	121	122	123	124
133	132	132	131	130	129	128	126	125	124	123	122	121	120	119	118	117	116	116	115	115	114	114	114	114	114	114	114	115	115	116	116	117	118	119	120	121	122	123	124	125	126	127	129	130	131	131	132	133	134	134	135	135	136	136	136	136	136	135	135	135	134	133	133	132	131	130	129	128	127	126	124	123	122	121	120	119	118	117	117	116	115	115	114	114	114	114	114	114	114	115	115	116	116	117	118	119	120	121	122
131	131	130	129	128	127	126	125	124	122	121	120	119	118	117	116	115	115	114	113	113	112	112	112	112	112	112	112	113	113	114	115	115	116	117	118	119	120	121	122	123	125	126	127	128	129	130	131	131	132	133	133	134	134	134	134	134	134	134	133	133	132	132	131	130	129	128	127	126	125	124	123	122	120	119	118	117	116	116	115	114	113	113	113	112	112	112	112	112	112	113	113	114	114	115	116	117	118	119	120
130	129	128	127	126	125	124	123	122	121	120	119	117	116	115	115	114	113	112	112	111	111	110	110	110	110	110	111	111	112	112	113	114	114	115	116	117	118	120	121	122	123	124	125	126	127	128	129	130	130	131	131	132	132	132	132	132	132	132	132	131	130	130	129	128	127	126	125	124	123	122	121	120	119	118	117	116	115	114	113	112	112	111	111	111	110	110	110	110	111	111	111	112	113	113	114	115	116	117	118
128	127	127	126	125	124	123	121	120	119	118	117	116	115	114	113	112	111	111	110	110	109	109	109	109	109	109	109	110	110	111	111	112	113	114	115	116	117	118	119	120	121	122	123	125	126	126	127	128	129	129	130	130	131	131	131	131	131	130	130	130	129	128	128	127	126	125	124	123	122	121	119	118	117	116	115	114	113	112	112	111	110	110	109	109	109	109	109	109	109	109	110	111	111	112	113	114	115	116	117
127	126	125	124	123	122	121	120	119	118	117	116	115	114	113	112	111	110	109	109	108	108	108	107	107	107	108	108	108	109	109	110	111	112	113	113	114	116	117	118	119	120	121	122	123	124	125	126	127	127	128	129	129	129	129	130	129	129	129	129	128	128	127	126	125	124	123	122	121	120	119	118	117	116	115	114	113	112	111	110	110	109	108	108	108	107	107	107	108	108	108	109	109	110	111	111	112	113	114	115
126	125	124	123	122	121	120	119	118	117	116	115	114	113	112	111	110	109	108	108	107	107	107	106	106	106	107	107	107	108	108	109	110	111	111	112	113	114	116	117	118	119	120	121	122	123	124	125	126	126	127	127	128	128	128	128	128	128	128	128	127	127	126	125	124	123	122	121	120	119	118	117	116	115	114	113	112	111	110	109	108	108	107	107	107	106	106	106	106	107	107	108	108	109	110	110	111	112	113	114
125	124	123	122	121	120	119	118	117	116	115	114	113	112	111	110	109	108	108	107	106	106	106	106	106	106	106	106	106	107	107	108	109	110	111	112	113	114	115	116	117	118	119	120	121	122	123	124	125	126	126	127	127	127	128	128	128	127	127	127	126	126	125	124	124	123	122	121	120	118	117	116	115	114	113	112	111	110	109	108	108	107	107	106	106	106	106	106	106	106	106	107	107	108	109	110	110	111	112	113
124	124	123	122	121	120	119	118	117	116	114	113	112	111	110	109	108	108	107	106	106	106	105	105	105	105	105	106	106	106	107	108	108	109	110	111	112	113	114	115	117	118	119	120	121	122	123	124	124	125	126	126	127	127	127	127	127	127	127	126	126	125	125	124	123	122	121	120	119	118	117	116	115	114	112	111	110	110	109	108	107	107	106	106	105	105	105	105	105	105	106	106	107	107	108	109	110	111	112	113
124	124	123	122	121	120	119	118	116	115	114	113	112	111	110	109	108	108	107	106	106	105	105	105	105	105	105	105	106	106	107	107	108	109	110	111	112	113	114	115	116	117	119	120	121	122	123	123	124	125	126	126	126	127	127	127	127	127	127	126	126	125	124	124	123	122	121	120	119	118	117	116	114	113	112	111	110	109	108	108	107	106	106	105	105	105	105	105	105	105	106	106	107	107	108	109	110	111	112	113
124	124	123	122	121	120	119	118	117	116	114	113	112	111	110	109	108	108	107	106	106	106	105	105	105	105	105	106	106	106	107	108	108	109	110	111	112	113	114	115	117	118	119	120	121	122	123	124	124	125	126	126	127	127	127	127	127	127	127	126	126	125	125	124	123	122	121	120	119	118	117	116	115	114	112	111	110	110	109	108	107	107	106	106	105	105	105	105	105	105	106	106	107	107	108	109	110	111	112	113
125	124	123	122	121	120	119	118	117	116	115	114	113	112	111	110	109	108	108	107	106	106	106	106	106	106	106	106	106	107	107	108	109	110	111	112	113	114	115	116	117	118	119	120	121	122	123	124	125	126	126	127	127	127	128	128	128	127	127	127	126	126	125	124	124	123	122	121	120	118	117	116	115	114	113	112	111	110	109	108	108	107	107	106	106	106	106	106	106	106	106	107	107	108	109	110	110	111	112	113
126	125	124	123	122	121	120	119	118	117	116	115	114	113	112	111	110	109	108	108	107	107	107	106	106	106	107	107	107	108	108	109	110	111	111	112	113	114	116	117	118	119	120	121	122	123	124	125	126	126	127	127	128	128	128	128	128	128	128	128	127	127	126	125	124	123	122	121	120	119	118	117	116	115	114	113	112	111	110	109	108	108	107	107	107	106	106	106	106	107	107	108	108	109	110	110	111	112	113	114
127	126	125	124	123	122	121	120	119	118	117	116	115	114	113	112	111	110	109	109	108	108	108	107	107	107	108	108	108	109	109	110	111	112	113	113	115	116	117	118	119	120	121	122	123	124	125	126	127	127	128	129	129	129	129	130	129	129	129	129	128	128	127	126	125	124	124	122	121	120	119	118	117	116	115	114	113	112	111	110	110	109	108	108	108	107	107	107	108	108	108	109	109	110	111	111	112	113	114	115
128	127	127	126	125	124	123	121	120	119	118	117	116	115	114	113	112	111	111	110	110	109	109	109	109	109	109	109	110	110	111	111	112	113	114	115	116	117	118	119	120	121	122	123	125	126	126	127	128	129	129	130	130	131	131	131	131	131	130	130	130	129	128	128	127	126	125	124	123	122	121	119	118	117	116	115	114	113	112	112	111	110	110	109	109	109	109	109	109	109	109	110	111	111	112	113	114	115	116	117
130	129	128	127	126	125	124	123	122	121	120	119	117	116	115	115	114	113	112	112	111	111	110	110	110	110	110	111	111	112	112	113	114	114	115	116	117	118	120	121	122	123	124	125	126	127	128	129	130	130	131	131	132	132	132	132	132	132	132	132	131	131	130	129	128	127	126	125	124	123	122	121	120	119	118	117	116	115	114	113	112	112	111	111	111	110	110	110	110	111	111	111	112	113	113	114	115	116	117	118
131	131	130	129	128	127	126	125	124	122	121	120	119	118	117	116	115	115	114	113	113	112	112	112	112	112	112	112	113	113	114	115	115	116	117	118	119	120	121	122	123	125	126	127	128	129	130	131	131	132	133	133	134	134	134	134	134	134	134	133	133	132	132	131	130	129	128	127	126	125	124	123	122	120	119	118	117	116	116	115	114	113	113	113	112	112	112	112	112	112	113	113	114	114	115	116	117	118	119	120
133	132	132	131	130	129	128	127	125	124	123	122	121	120	119	118	117	116	116	115	115	114	114	114	114	114	114	114	115	115	116	116	117	118	119	120	121	122	123	124	125	126	127	129	130	131	132	132	133	134	134	135	135	136	136	136	136	136	135	135	135	134	133	133	132	131	130	129	128	127	126	125	123	122	121	120	119	118	117	117	116	115	115	114	114	114	114	114	114	114	115	115	116	116	117	118	119	120	121	122
135	134	133	133	132	131	129	128	127	126	125	124	123	122	121	120	119	118	118	117	117	116	116	116	116	116	116	116	117	117	118	118	119	120	121	122	123	124	125	126	127	128	129	130	131	132	133	134	135	136	136	137	137	138	138	138	138	138	137	137	136	136	135	134	134	133	132	131	130	129	128	126	125	124	123	122	121	120	119	118	118	117	117	116	116	116	116	116	116	116	116	117	117	118	119	120	121	122	123	124
137	136	135	134	133	132	131	130	129	128	127	126	125	124	123	122	121	120	120	119	118	118	118	118	118	118	118	118	118	119	119	120	121	122	123	124	125	126	127	128	129	130	131	132	133	134	135	136	137	138	138	139	139	139	140	140	140	139	139	139	138	138	137	136	136	135	134	133	132	131	129	128	127	126	125	124	123	122	121	120	120	119	119	118	118	118	118	118	118	118	118	119	119	120	121	122	122	123	124	126
139	138	137	136	135	134	133	132	131	130	129	128	127	126	125	124	123	122	121	121	120	120	120	119	119	119	120	120	120	121	121	122	123	124	125	126	127	128	129	130	131	132	133	134	135	136	137	138	139	139	140	141	141	141	141	142	141	141	141	141	140	140	139	138	137	136	136	135	133	132	131	130	129	128	127	126	125	124	123	122	122	121	120	120	120	119	119	119	120	120	120	121	121	122	123	123	124	125	126	127
141	140	139	138	137	136	135	134	133	132	131	129	128	127	126	125	125	124	123	123	122	122	121	121	121	121	121	122	122	122	123	124	125	125	126	127	128	129	130	132	133	134	135	136	137	138	139	140	141	141	142	142	143	143	143	143	143	143	143	142	142	141	141	140	139	138	137	136	135	134	133	132	131	130	129	128	127	126	125	124	123	123	122	122	121	121	121	121	121	122	122	122	123	124	124	125	126	127	128	129
142	141	141	140	139	138	137	135	134	133	132	131	130	129	128	127	126	125	125	124	124	123	123	123	123	123	123	123	124	124	125	125	126	127	128	129	130	131	132	133	134	135	136	138	139	140	140	141	142	143	143	144	144	145	145	145	145	145	144	144	144	143	142	142	141	140	139	138	137	136	135	133	132	131	130	129	128	127	126	126	125	124	124	123	123	123	123	123	123	123	124	124	125	125	126	127	128	129	130	131
144	143	142	141	140	139	138	137	136	135	134	132	131	130	129	128	128	127	126	126	125	125	124	124	124	124	124	125	125	125	126	127	128	128	129	130	131	132	133	135	136	137	138	139	140	141	142	143	144	144	145	145	146	146	146	146	146	146	146	145	145	144	144	143	142	141	140	139	138	137	136	135	134	133	132	131	130	129	128	127	126	126	125	125	124	124	124	124	124	125	125	125	126	127	127	128	129	130	131	132
145	144	143	142	141	140	139	138	137	136	135	134	133	131	131	130	129	128	127	127	126	126	126	125	125	125	125	126	126	127	127	128	129	130	130	131	132	133	135	136	137	138	139	140	141	142	143	144	145	145	146	146	147	147	147	147	147	147	147	147	146	146	145	144	143	142	141	140	139	138	137	136	135	134	133	132	131	130	129	128	127	127	126	126	126	125	125	125	125	126	126	127	127	128	128	129	130	131	132	133
146	145	144	143	142	141	140	139	138	137	136	134	133	132	131	130	130	129	128	128	127	127	126	126	126	126	126	127	127	128	128	129	130	130	131	132	133	134	135	137	138	139	140	141	142	143	144	145	146	146	147	147	148	148	148	148	148	148	148	147	147	146	146	145	144	143	142	141	140	139	138	137	136	135	134	133	132	131	130	129	128	128	127	127	126	126	126	126	126	127	127	127	128	129	129	130	131	132	133	134
146	145	145	144	143	142	141	139	138	137	136	135	134	133	132	131	130	129	129	128	128	127	127	127	127	127	127	127	128	128	129	129	130	131	132	133	134	135	136	137	138	139	140	142	143	144	144	145	146	147	147	148	148	149	149	149	149	149	148	148	148	147	146	146	145	144	143	142	141	140	139	137	136	135	134	133	132	131	130	130	129	128	128	127	127	127	127	127	127	127	128	128	129	129	130	131	132	133	134	135
146	146	145	144	143	142	141	140	139	137	136	135	134	133	132	131	130	130	129	128	128	128	127	127	127	127	127	127	128	128	129	130	130	131	132	133	134	135	136	137	139	140	141	142	143	144	145	146	146	147	148	148	149	149	149	149	149	149	149	148	148	147	147	146	145	144	143	142	141	140	139	138	137	136	134	133	132	131	131	130	129	129	128	128	127	127	127	127	127	127	128	128	129	129	130	131	132	133	134	135
146	146	145	144	143	142	141	140	139	137	136	135	134	133	132	131	130	130	129	128	128	127	127	127	127	127	127	127	128	128	129	130	130	131	132	133	134	135	136	137	138	140	141	142	143	144	145	146	146	147	148	148	149	149	149	149	149	149	149	148	148	147	147	146	145	144	143	142	141	140	139	138	137	135	134	133	132	131	131	130	129	128	128	128	127	127	127	127	127	127	128	128	129	129	130	131	132	133	134	135
146	145	144	143	142	141	140	139	138	137	136	135	134	133	132	131	130	129	129	128	127	127	127	127	127	127	127	127	127	128	128	129	130	131	132	133	134	135	136	137	138	139	140	141	142	143	144	145	146	147	147	148	148	148	149	149	149	148	148	148	147	147	146	145	145	144	143	142	141	139	138	137	136	135	134	133	132	131	130	129	129	128	128	127	127	127	127	127	127	127	127	128	128	129	130	131	131	132	133	135
145	145	144	143	142	141	140	139	137	136	135	134	133	132	131	130	129	129	128	127	127	126	126	126	126	126	126	126	127	127	128	128	129	130	131	132	133	134	135	136	137	138	140	141	142	143	144	144	145	146	146	147	147	148	148	148	148	148	148	147	147	146	145	145	144	143	142	141	140	139	138	137	135	134	133	132	131	130	129	129	128	127	127	126	126	126	126	126	126	126	127	127	128	128	129	130	131	132	133	134
144	144	143	142	141	140	139	138	136	135	134	133	132	131	130	129	128	128	127	126	126	125	125	125	125	125	125	125	126	126	127	127	128	129	130	131	132	133	134	135	136	137	139	140	141	142	143	143	144	145	146	146	146	147	147	147	147	147	147	146	146	145	144	144	143	142	141	140	139	138	137	136	134	133	132	131	130	129	128	128	127	126	126	125	125	125	125	125	125	125	126	126	127	127	128	129	130	131	132	133
143	142	141	140	140	138	137	136	135	134	133	132	131	130	129	128	127	126	126	125	124	124	124	124	124	124	124	124	124	125	126	126	127	128	129	130	131	132	133	134	135	136	137	138	139	140	141	142	143	144	144	145	145	145	146	146	146	146	145	145	144	144	143	142	142	141	140	139	138	137	135	134	133	132	131	130	129	128	127	126	126	125	125	124	124	124	124	124	124	124	124	125	125	126	127	128	129	129	130	132
142	141	140	139	138	137	136	135	134	133	131	130	129	128	127	126	126	125	124	124	123	123	122	122	122	122	122	123	123	123	124	125	125	126	127	128	129	130	131	132	134	135	136	137	138	139	140	141	141	142	143	143	144	144	144	144	144	144	144	143	143	142	142	141	140	139	138	137	136	135	134	133	132	131	130	129	128	127	126	125	124	124	123	123	122	122	122	122	122	123	123	123	124	125	125	126	127	128	129	130
140	139	138	137	136	135	134	133	132	131	130	129	128	127	126	125	124	123	122	122	121	121	121	120	120	120	121	121	121	122	122	123	124	125	126	127	128	129	130	131	132	133	134	135	136	137	138	139	140	141	141	142	142	142	142	143	143	142	142	142	141	141	140	139	138	138	137	136	134	133	132	131	130	129	128	127	126	125	124	123	123	122	121	121	121	121	120	120	121	121	121	122	122	123	124	124	125	126	127	128
138	137	136	136	135	134	132	131	130	129	128	127	126	125	124	123	122	121	121	120	120	119	119	119	119	119	119	119	120	120	121	121	122	123	124	125	126	127	128	129	130	131	132	133	134	135	136	137	138	139	139	140	140	141	141	141	141	141	140	140	139	139	138	137	137	136	135	134	133	132	130	129	128	127	126	125	124	123	122	121	121	120	120	119	119	119	119	119	119	119	119	120	120	121	122	123	124	125	126	127
136	135	135	134	133	132	131	130	128	127	126	125	124	123	122	121	120	119	119	118	118	117	117	117	117	117	117	117	118	118	119	119	120	121	122	123	124	125	126	127	128	129	130	132	133	134	135	135	136	137	137	138	138	139	139	139	139	139	138	138	138	137	136	136	135	134	133	132	131	130	129	128	126	125	124	123	122	121	120	120	119	118	118	117	117	117	117	117	117	117	118	118	119	119	120	121	122	123	124	125
134	134	133	132	131	130	129	128	126	125	124	123	122	121	120	119	118	118	117	116	116	115	115	115	115	115	115	115	116	116	117	117	118	119	120	121	122	123	124	125	126	127	129	130	131	132	133	133	134	135	136	136	136	137	137	137	137	137	137	136	136	135	134	134	133	132	131	130	129	128	127	126	124	123	122	121	120	119	118	118	117	116	116	115	115	115	115	115	115	115	116	116	117	117	118	119	120	121	122	123
132	132	131	130	129	128	127	126	125	124	122	121	120	119	118	117	116	116	115	114	114	114	113	113	113	113	113	113	114	114	115	116	116	117	118	119	120	121	122	123	125	126	127	128	129	130	131	132	132	133	134	134	135	135	135	135	135	135	135	134	134	133	133	132	131	130	129	128	127	126	125	124	123	122	120	119	118	117	117	116	115	115	114	114	113	113	113	113	113	113	114	114	115	115	116	117	118	119	120	121
131	130	129	128	127	126	125	124	123	122	121	120	118	117	116	116	115	114	113	113	112	112	111	111	111	111	111	112	112	113	113	114	115	115	116	117	118	119	121	122	123	124	125	126	127	128	129	130	131	131	132	132	133	133	133	133	133	133	133	133	132	131	131	130	129	128	127	126	125	124	123	122	121	120	119	118	117	116	115	114	113	113	112	112	112	111	111	111	111	112	112	112	113	114	114	115	116	117	118	119
129	128	127	126	126	124	123	122	121	120	119	118	117	116	115	114	113	112	112	111	110	110	110	110	110	110	110	110	110	111	112	112	113	114	115	116	117	118	119	120	121	122	123	124	125	126	127	128	129	130	130	131	131	131	132	132	132	132	131	131	130	130	129	128	128	127	126	125	124	123	121	120	119	118	117	116	115	114	113	112	112	111	111	110	110	110	110	110	110	110	110	111	111	112	113	114	115	115	116	118
128	127	126	125	124	123	122	121	120	119	118	116	115	114	113	112	112	111	110	110	109	109	108	108	108	108	108	109	109	109	110	111	112	112	113	114	115	116	117	119	120	121	122	123	124	125	126	127	127	128	129	129	130	130	130	130	130	130	130	129	129	128	128	127	126	125	124	123	122	121	120	119	118	117	116	115	114	113	112	111	110	110	109	109	108	108	108	108	108	109	109	109	110	111	111	112	113	114	115	116
126	126	125	124	123	122	121	120	119	117	116	115	114	113	112	111	110	110	109	108	108	107	107	107	107	107	107	107	108	108	109	110	110	111	112	113	114	115	116	117	118	120	121	122	123	124	125	125	126	127	128	128	128	129	129	129	129	129	129	128	128	127	126	126	125	124	123	122	121	120	119	118	117	115	114	113	112	111	111	110	109	108	108	107	107	107	107	107	107	107	108	108	109	109	110	111	112	113	114	115
125	125	124	123	122	121	120	119	118	116	115	114	113	112	111	110	109	109	108	107	107	106	106	106	106	106	106	106	107	107	108	109	109	110	111	112	113	114	115	116	117	119	120	121	122	123	124	125	125	126	127	127	128	128	128	128	128	128	128	127	127	126	126	125	124	123	122	121	120	119	118	117	116	114	113	112	111	110	110	109	108	107	107	107	106	106	106	106	106	106	107	107	108	108	109	110	111	112	113	114
125	124	123	122	121	120	119	118	117	116	115	114	113	111	110	110	109	108	107	107	106	106	106	105	105	105	105	106	106	107	107	108	109	109	110	111	112	113	115	116	117	118	119	120	121	122	123	124	125	125	126	126	127	127	127	127	127	127	127	127	126	126	125	124	123	122	121	120	119	118	117	116	115	114	113	112	111	110	109	108	107	107	106	106	106	105	105	105	105	106	106	107	107	108	108	109	110	111	112	113
124	124	123	122	121	120	119	118	117	115	114	113	112	111	110	109	108	108	107	106	106	105	105	105	105	105	105	105	106	106	107	108	108	109	110	111	112	113	114	115	116	118	119	120	121	122	123	124	124	125	126	126	127	127	127	127	127	127	127	126	126	125	125	124	123	122	121	120	119	118	117	116	115	113	112	111	110	109	109	108	107	106	106	106	105	105	105	105	105	105	106	106	107	107	108	109	110	111	112	113
124	124	123	122	121	120	119	118	117	115	114	113	112	111	110	109	108	108	107	106	106	105	105	105	105	105	105	105	106	106	107	108	108	109	110	111	112	113	114	115	116	118	119	120	121	122	123	123	124	125	126	126	126	127	127	127	127	127	127	126	126	125	124	124	123	122	121	120	119	118	117	116	115	113	112	111	110	109	109	108	107	106	106	105	105	105	105	105	105	105	106	106	107	107	108	109	110	111	112	113
125	124	123	122	121	120	119	118	117	116	115	113	112	111	110	109	109	108	107	107	106	106	105	105	105	105	105	106	106	107	107	108	109	109	110	111	112	113	114	116	117	118	119	120	121	122	123	124	125	125	126	126	127	127	127	127	127	127	127	126	126	125	125	124	123	122	121	120	119	118	117	116	115	114	113	112	111	110	109	108	107	107	106	106	105	105	105	105	105	106	106	106	107	108	108	109	110	111	112	113
125	124	124	123	122	121	120	119	117	116	115	114	113	112	111	110	109	108	108	107	107	106	106	106	106	106	106	106	107	107	108	108	109	110	111	112	113	114	115	116	117	118	120	121	122	123	124	124	125	126	126	127	127	128	128	128	128	128	127	127	127	126	125	125	124	123	122	121	120	119	118	117	115	114	113	112	111	110	109	109	108	107	107	106	106	106	106	106	106	106	107	107	108	108	109	110	111	112	113	114
126	125	125	124	123	122	121	119	118	117	116	115	114	113	112	111	110	109	109	108	108	107	107	107	107	107	107	107	108	108	109	109	110	111	112	113	114	115	116	117	118	119	120	122	123	124	124	125	126	127	127	128	128	129	129	129	129	129	128	128	128	127	126	126	125	124	123	122	121	120	119	117	116	115	114	113	112	111	110	110	109	108	108	107	107	107	107	107	107	107	107	108	109	109	110	111	112	113	114	115
127	127	126	125	124	123	122	121	120	118	117	116	115	114	113	112	111	111	110	109	109	108	108	108	108	108	108	108	109	109	110	111	111	112	113	114	115	116	117	118	119	121	122	123	124	125	126	126	127	128	129	129	129	130	130	130	130	130	130	129	129	128	127	127	126	125	124	123	122	121	120	119	118	116	115	114	113	112	112	111	110	109	109	108	108	108	108	108	108	108	109	109	110	110	111	112	113	114	115	116
129	128	127	126	125	124	123	122	121	120	119	118	117	116	115	114	113	112	111	111	110	110	110	109	109	109	110	110	110	111	111	112	113	114	114	115	116	118	119	120	121	122	123	124	125	126	127	128	129	129	130	130	131	131	131	131	131	131	131	131	130	130	129	128	127	126	125	124	123	122	121	120	119	118	117	116	115	114	113	112	111	111	110	110	110	109	109	109	109	110	110	111	111	112	113	113	114	115	116	117
130	130	129	128	127	126	125	124	123	121	120	119	118	117	116	115	114	114	113	112	112	111	111	111	111	111	111	111	112	112	113	114	114	115	116	117	118	119	120	121	122	124	125	126	127	128	129	130	130	131	132	132	133	133	133	133	133	133	133	132	132	131	131	130	129	128	127	126	125	124	123	122	121	119	118	117	116	115	115	114	113	112	112	112	111	111	111	111	111	111	112	112	113	113	114	115	116	117	118	119
132	131	131	130	129	128	127	125	124	123	122	121	120	119	118	117	116	115	115	114	114	113	113	113	113	113	113	113	114	114	115	115	116	117	118	119	120	121	122	123	124	125	126	127	129	129	130	131	132	133	133	134	134	135	135	135	135	135	134	134	134	133	132	132	131	130	129	128	127	126	125	123	122	121	120	119	118	117	116	116	115	114	114	113	113	113	113	113	113	113	113	114	114	115	116	117	118	119	120	121
134	133	132	131	130	129	128	127	126	125	124	123	122	121	120	119	118	117	117	116	115	115	115	115	115	115	115	115	115	116	116	117	118	119	120	121	122	123	124	125	126	127	128	129	130	131	132	133	134	135	135	136	136	136	137	137	137	136	136	136	135	135	134	133	133	132	131	130	129	128	126	125	124	123	122	121	120	119	118	117	117	116	116	115	115	115	115	115	115	115	115	116	116	117	118	119	119	120	121	123
136	135	134	133	132	131	130	129	128	127	126	125	124	123	122	121	120	119	118	118	117	117	117	116	116	116	117	117	117	118	118	119	120	121	122	123	124	125	126	127	128	129	130	131	132	133	134	135	136	137	137	138	138	138	138	139	139	138	138	138	137	137	136	135	134	134	133	132	130	129	128	127	126	125	124	123	122	121	120	119	119	118	117	117	117	117	116	116	117	117	117	118	118	119	120	120	121	122	123	124
138	137	136	135	134	133	132	131	130	129	128	127	126	125	124	123	122	121	120	120	119	119	119	118	118	118	119	119	119	120	120	121	122	123	123	124	125	127	128	129	130	131	132	133	134	135	136	137	138	138	139	139	140	140	140	140	140	140	140	140	139	139	138	137	136	135	134	133	132	131	130	129	128	127	126	125	124	123	122	121	120	120	119	119	119	118	118	118	118	119	119	120	120	121	122	122	123	124	125	126
140	139	138	137	136	135	134	133	132	131	130	128	127	126	125	124	124	123	122	122	121	121	120	120	120	120	120	121	121	121	122	123	124	124	125	126	127	128	129	131	132	133	134	135	136	137	138	139	140	140	141	141	142	142	142	142	142	142	142	141	141	140	140	139	138	137	136	135	134	133	132	131	130	129	128	127	126	125	124	123	122	122	121	121	120	120	120	120	120	121	121	121	122	123	123	124	125	126	127	128
141	140	140	139	138	137	136	135	133	132	131	130	129	128	127	126	125	125	124	123	123	122	122	122	122	122	122	122	123	123	124	124	125	126	127	128	129	130	131	132	133	134	136	137	138	139	140	140	141	142	142	143	143	144	144	144	144	144	144	143	143	142	141	141	140	139	138	137	136	135	134	133	131	130	129	128	127	126	125	125	124	123	123	122	122	122	122	122	122	122	123	123	124	124	125	126	127	128	129	130
143	142	141	140	139	138	137	136	135	134	133	132	131	130	129	128	127	126	125	125	124	124	124	123	123	123	124	124	124	125	125	126	127	128	128	129	130	132	133	134	135	136	137	138	139	140	141	142	143	143	144	145	145	145	145	145	145	145	145	145	144	144	143	142	141	140	139	138	137	136	135	134	133	132	131	130	129	128	127	126	125	125	124	124	124	123	123	123	124	124	124	125	125	126	127	127	128	129	130	131
144	143	142	142	141	140	138	137	136	135	134	133	132	131	130	129	128	127	127	126	126	125	125	125	125	125	125	125	125	126	127	127	128	129	130	131	132	133	134	135	136	137	138	139	140	141	142	143	144	145	145	146	146	147	147	147	147	147	146	146	145	145	144	143	143	142	141	140	139	138	136	135	134	133	132	131	130	129	128	127	127	126	126	125	125	125	125	125	125	125	125	126	126	127	128	129	130	131	132	133
145	144	143	143	142	141	140	138	137	136	135	134	133	132	131	130	129	128	128	127	127	126	126	126	126	126	126	126	127	127	128	128	129	130	131	132	133	134	135	136	137	138	139	140	142	142	143	144	145	146	146	147	147	148	148	148	148	148	147	147	147	146	145	145	144	143	142	141	140	139	138	136	135	134	133	132	131	130	129	129	128	127	127	126	126	126	126	126	126	126	126	127	127	128	129	130	131	132	133	134
146	145	144	143	142	141	140	139	138	137	136	135	134	133	132	131	130	129	128	128	127	127	127	126	126	126	127	127	127	128	128	129	130	131	132	133	134	135	136	137	138	139	140	141	142	143	144	145	146	146	147	148	148	148	148	149	149	148	148	148	147	147	146	145	144	144	143	142	140	139	138	137	136	135	134	133	132	131	130	129	129	128	127	127	127	127	126	126	127	127	127	128	128	129	130	130	131	132	133	134
146	146	145	144	143	142	141	140	139	137	136	135	134	133	132	131	130	130	129	128	128	127	127	127	127	127	127	127	128	128	129	129	130	131	132	133	134	135	136	137	138	140	141	142	143	144	145	145	146	147	148	148	148	149	149	149	149	149	149	148	148	147	146	146	145	144	143	142	141	140	139	138	136	135	134	133	132	131	131	130	129	128	128	127	127	127	127	127	127	127	128	128	129	129	130	131	132	133	134	135
146	146	145	144	143	142	141	140	139	138	136	135	134	133	132	131	130	130	129	128	128	128	127	127	127	127	127	127	128	128	129	130	130	131	132	133	134	135	136	137	139	140	141	142	143	144	145	146	146	147	148	148	149	149	149	149	149	149	149	148	148	147	147	146	145	144	143	142	141	140	139	138	137	136	134	133	132	131	131	130	129	129	128	128	127	127	127	127	127	127	128	128	129	129	130	131	132	133	134	135
146	145	145	144	143	142	141	140	138	137	136	135	134	133	132	131	130	129	129	128	128	127	127	127	127	127	127	127	128	128	129	129	130	131	132	133	134	135	136	137	138	139	141	142	143	144	145	145	146	147	147	148	148	149	149	149	149	149	148	148	148	147	146	146	145	144	143	142	141	140	139	138	136	135	134	133	132	131	130	130	129	128	128	127	127	127	127	127	127	127	128	128	129	129	130	131	132	133	134	135
146	145	144	143	142	141	140	139	138	137	136	135	134	132	132	131	130	129	128	128	127	127	127	126	126	126	126	127	127	128	128	129	130	131	131	132	133	134	136	137	138	139	140	141	142	143	144	145	146	146	147	147	148	148	148	148	148	148	148	148	147	147	146	145	144	143	142	141	140	139	138	137	136	135	134	133	132	131	130	129	128	128	127	127	127	126	126	126	126	127	127	128	128	129	129	130	131	132	133	134
145	144	143	142	141	140	139	138	137	136	135	134	133	132	131	130	129	128	127	127	126	126	126	126	125	126	126	126	126	127	127	128	129	130	131	132	133	134	135	136	137	138	139	140	141	142	143	144	145	146	146	147	147	147	148	148	148	147	147	147	146	146	145	144	143	143	142	141	140	138	137	136	135	134	133	132	131	130	129	128	128	127	126	126	126	126	125	125	126	126	126	127	127	128	129	129	130	131	132	133
144	143	142	141	140	139	138	137	136	135	134	133	132	131	130	129	128	127	126	126	125	125	125	124	124	124	125	125	125	126	126	127	128	129	129	130	131	133	134	135	136	137	138	139	140	141	142	143	144	144	145	146	146	146	146	146	146	146	146	146	145	145	144	143	142	141	140	139	138	137	136	135	134	133	132	131	130	129	128	127	126	126	125	125	125	124	124	124	125	125	125	126	126	127	128	128	129	130	131	132
142	142	141	140	139	138	137	136	135	134	132	131	130	129	128	127	126	126	125	124	124	124	123	123	123	123	123	123	124	124	125	126	126	127	128	129	130	131	132	133	135	136	137	138	139	140	141	142	142	143	144	144	145	145	145	145	145	145	145	144	144	143	143	142	141	140	139	138	137	136	135	134	133	132	130	129	128	127	127	126	125	125	124	124	123	123	123	123	123	123	124	124	125	125	126	127	128	129	130	131
141	140	139	138	137	136	135	134	133	132	131	130	129	128	127	126	125	124	123	123	122	122	122	121	121	121	122	122	122	123	123	124	125	126	127	128	129	130	131	132	133	134	135	136	137	138	139	140	141	142	142	143	143	143	143	144	144	143	143	143	142	142	141	140	139	139	138	137	135	134	133	132	131	130	129	128	127	126	125	124	124	123	122	122	122	122	121	121	122	122	122	123	123	124	125	125	126	127	128	129
139	138	138	137	136	135	134	132	131	130	129	128	127	126	125	124	123	122	122	121	121	120	120	120	120	120	120	120	121	121	122	122	123	124	125	126	127	128	129	130	131	132	133	135	136	137	137	138	139	140	140	141	141	142	142	142	142	142	141	141	141	140	139	139	138	137	136	135	134	133	132	130	129	128	127	126	125	124	123	123	122	121	121	120	120	120	120	120	120	120	120	121	122	122	123	124	125	126	127	128
137	137	136	135	134	133	132	131	130	128	127	126	125	124	123	122	121	121	120	119	119	118	118	118	118	118	118	118	119	119	120	120	121	122	123	124	125	126	127	128	129	131	132	133	134	135	136	136	137	138	139	139	139	140	140	140	140	140	140	139	139	138	137	137	136	135	134	133	132	131	130	129	128	126	125	124	123	122	122	121	120	119	119	118	118	118	118	118	118	118	119	119	120	120	121	122	123	124	125	126
135	135	134	133	132	131	130	129	128	126	125	124	123	122	121	120	119	119	118	117	117	117	116	116	116	116	116	116	117	117	118	119	119	120	121	122	123	124	125	126	128	129	130	131	132	133	134	135	135	136	137	137	138	138	138	138	138	138	138	137	137	136	136	135	134	133	132	131	130	129	128	127	126	125	123	122	121	120	120	119	118	118	117	117	116	116	116	116	116	116	117	117	118	118	119	120	121	122	123	124
134	133	132	131	130	129	128	127	126	125	123	122	121	120	119	118	118	117	116	116	115	115	114	114	114	114	114	115	115	115	116	117	117	118	119	120	121	122	123	124	126	127	128	129	130	131	132	133	133	134	135	135	136	136	136	136	136	136	136	135	135	134	134	133	132	131	130	129	128	127	126	125	124	123	122	121	120	119	118	117	116	116	115	115	114	114	114	114	114	115	115	115	116	117	117	118	119	120	121	122
132	131	130	129	128	127	126	125	124	123	122	121	119	118	117	117	116	115	114	114	113	113	112	112	112	112	112	113	113	114	114	115	116	116	117	118	119	120	122	123	124	125	126	127	128	129	130	131	132	132	133	133	134	134	134	134	134	134	134	134	133	133	132	131	130	129	128	127	126	125	124	123	122	121	120	119	118	117	116	115	114	114	113	113	113	112	112	112	112	113	113	114	114	115	115	116	117	118	119	120
130	129	128	127	126	125	124	123	122	121	120	119	118	117	116	115	114	113	113	112	111	111	111	111	111	111	111	111	111	112	112	113	114	115	116	117	118	119	120	121	122	123	124	125	126	127	128	129	130	131	131	132	132	132	133	133	133	132	132	132	131	131	130	129	129	128	127	126	125	123	122	121	120	119	118	117	116	115	114	113	113	112	112	111	111	111	111	111	111	111	111	112	112	113	114	115	115	116	117	119
128	128	127	126	125	124	123	122	121	119	118	117	116	115	114	113	112	112	111	110	110	109	109	109	109	109	109	109	110	110	111	112	112	113	114	115	116	117	118	119	120	122	123	124	125	126	127	128	128	129	130	130	131	131	131	131	131	131	131	130	130	129	129	128	127	126	125	124	123	122	121	120	119	117	116	115	114	113	113	112	111	110	110	110	109	109	109	109	109	109	110	110	111	111	112	113	114	115	116	117
127	126	125	124	124	122	121	120	119	118	117	116	115	114	113	112	111	110	110	109	109	108	108	108	108	108	108	108	108	109	110	110	111	112	113	114	115	116	117	118	119	120	121	122	123	124	125	126	127	128	128	129	129	129	130	130	130	130	129	129	128	128	127	126	126	125	124	123	122	121	119	118	117	116	115	114	113	112	111	110	110	109	109	108	108	108	108	108	108	108	108	109	109	110	111	112	113	113	115	116
126	125	124	123	122	121	120	119	118	117	116	115	114	113	112	111	110	109	108	108	107	107	107	107	106	107	107	107	107	108	108	109	110	111	112	113	114	115	116	117	118	119	120	121	122	123	124	125	126	127	127	128	128	128	129	129	129	128	128	128	127	127	126	125	124	124	123	122	121	119	118	117	116	115	114	113	112	111	110	109	109	108	107	107	107	107	106	106	107	107	107	108	108	109	110	111	111	112	113	114
125	124	123	123	122	121	119	118	117	116	115	114	113	112	111	110	109	108	108	107	107	106	106	106	106	106	106	106	106	107	108	108	109	110	111	112	113	114	115	116	117	118	119	120	121	122	123	124	125	126	126	127	127	128	128	128	128	128	127	127	126	126	125	124	124	123	122	121	120	119	117	116	115	114	113	112	111	110	109	108	108	107	107	106	106	106	106	106	106	106	106	107	107	108	109	110	111	112	113	114
125	124	123	122	121	120	119	118	117	116	114	113	112	111	110	109	109	108	107	106	106	106	105	105	105	105	105	106	106	106	107	108	108	109	110	111	112	113	114	115	117	118	119	120	121	122	123	124	124	125	126	126	127	127	127	127	127	127	127	126	126	125	125	124	123	122	121	120	119	118	117	116	115	114	113	111	111	110	109	108	107	107	106	106	105	105	105	105	105	106	106	106	107	108	108	109	110	111	112	113
124	124	123	122	121	120	119	118	116	115	114	113	112	111	110	109	108	108	107	106	106	105	105	105	105	105	105	105	106	106	107	107	108	109	110	111	112	113	114	115	116	117	119	120	121	122	123	123	124	125	126	126	126	127	127	127	127	127	127	126	126	125	124	124	123	122	121	120	119	118	117	116	114	113	112	111	110	109	108	108	107	106	106	105	105	105	105	105	105	105	106	106	107	107	108	109	110	111	112	113
124	124	123	122	121	120	119	118	117	115	114	113	112	111	110	109	108	108	107	106	106	105	105	105	105	105	105	105	106	106	107	108	108	109	110	111	112	113	114	115	116	118	119	120	121	122	123	124	124	125	126	126	127	127	127	127	127	127	127	126	126	125	125	124	123	122	121	120	119	118	117	116	115	113	112	111	110	109	109	108	107	106	106	106	105	105	105	105	105	105	106	106	107	107	108	109	110	111	112	113
125	124	123	122	121	120	119	118	117	116	115	114	113	112	111	110	109	108	107	107	106	106	106	105	105	105	106	106	106	107	107	108	109	110	111	112	113	114	115	116	117	118	119	120	121	122	123	124	125	125	126	127	127	127	127	128	127	127	127	127	126	126	125	124	123	122	122	121	119	118	117	116	115	114	113	112	111	110	109	108	108	107	106	106	106	105	105	105	106	106	106	107	107	108	109	109	110	111	112	113
126	125	124	123	122	121	120	119	118	117	116	114	113	112	111	110	110	109	108	108	107	107	106	106	106	106	106	107	107	107	108	109	110	110	111	112	113	114	115	117	118	119	120	121	122	123	124	125	126	126	127	127	128	128	128	128	128	128	128	127	127	126	126	125	124	123	122	121	120	119	118	117	116	115	114	113	112	111	110	109	108	108	107	107	106	106	106	106	106	107	107	107	108	109	109	110	111	112	113	114
127	126	125	124	123	122	121	120	119	118	117	115	114	113	112	111	111	110	109	109	108	108	107	107	107	107	107	108	108	109	109	110	111	111	112	113	114	115	116	118	119	120	121	122	123	124	125	126	127	127	128	128	129	129	129	129	129	129	129	128	128	127	127	126	125	124	123	122	121	120	119	118	117	116	115	114	113	112	111	110	109	109	108	108	107	107	107	107	107	108	108	108	109	110	110	111	112	113	114	115
128	127	126	125	124	123	122	121	120	119	118	117	116	115	114	113	112	111	110	110	109	109	109	109	108	108	109	109	109	110	110	111	112	113	114	115	116	117	118	119	120	121	122	123	124	125	126	127	128	129	129	130	130	130	131	131	131	130	130	130	129	129	128	127	126	126	125	124	122	121	120	119	118	117	116	115	114	113	112	111	111	110	109	109	109	109	108	108	109	109	109	110	110	111	112	112	113	114	115	116
129	129	128	127	126	125	124	123	122	120	119	118	117	116	115	114	113	113	112	111	111	110	110	110	110	110	110	110	111	111	112	113	113	114	115	116	117	118	119	120	121	123	124	125	126	127	128	129	129	130	131	131	132	132	132	132	132	132	132	131	131	130	130	129	128	127	126	125	124	123	122	121	120	118	117	116	115	114	114	113	112	111	111	111	110	110	110	110	110	110	111	111	112	112	113	114	115	116	117	118
131	130	129	129	128	127	125	124	123	122	121	120	119	118	117	116	115	114	114	113	113	112	112	112	112	112	112	112	112	113	114	114	115	116	117	118	119	120	121	122	123	124	125	126	127	128	129	130	131	132	132	133	133	134	134	134	134	134	133	133	132	132	131	130	130	129	128	127	126	125	123	122	121	120	119	118	117	116	115	114	114	113	113	112	112	112	112	112	112	112	112	113	113	114	115	116	117	118	119	120
133	132	131	130	129	128	127	126	125	124	123	122	121	120	119	118	117	116	115	115	114	114	114	113	113	113	114	114	114	115	115	116	117	118	119	120	121	122	123	124	125	126	127	128	129	130	131	132	133	134	134	135	135	135	135	136	136	135	135	135	134	134	133	132	131	131	130	129	127	126	125	124	123	122	121	120	119	118	117	116	116	115	114	114	114	114	113	113	114	114	114	115	115	116	117	117	118	119	120	121
135	134	133	132	131	130	129	128	127	126	125	124	123	122	121	120	119	118	117	117	116	116	116	115	115	115	116	116	116	117	117	118	119	120	120	121	122	124	125	126	127	128	129	130	131	132	133	134	135	135	136	136	137	137	137	137	137	137	137	137	136	136	135	134	133	132	131	130	129	128	127	126	125	124	123	122	121	120	119	118	117	117	116	116	116	115	115	115	115	116	116	117	117	118	119	119	120	121	122	123
137	136	135	134	133	132	131	130	129	128	127	126	124	123	122	122	121	120	119	119	118	118	117	117	117	117	117	118	118	119	119	120	121	121	122	123	124	125	126	128	129	130	131	132	133	134	135	136	137	137	138	138	139	139	139	139	139	139	139	139	138	137	137	136	135	134	133	132	131	130	129	128	127	126	125	124	123	122	121	120	119	119	118	118	117	117	117	117	117	118	118	118	119	120	120	121	122	123	124	125
139	138	137	136	135	134	133	132	131	130	128	127	126	125	124	123	123	122	121	120	120	120	119	119	119	119	119	120	120	120	121	122	122	123	124	125	126	127	128	129	131	132	133	134	135	136	137	138	138	139	140	140	141	141	141	141	141	141	141	140	140	139	139	138	137	136	135	134	133	132	131	130	129	128	127	125	124	124	123	122	121	121	120	120	119	119	119	119	119	119	120	120	121	122	122	123	124	125	126	127
