P2
100	100
255
229	225	220	214	209	203	197	190	184	178	171	165	159	153	147	142	137	133	129	125	122	120	118	117	117	117	118	120	122	125	128	132	137	141	147	152	158	164	171	177	183	190	196	202	208	214	219	224	229	233	236	239	241	243	244	245	244	243	242	240	237	234	230	226	221	216	210	204	198	192	185	179	172	166	160	154	148	143	138	133	129	126	123	120	119	118	117	117	118	119	122	124	127	131	136	140	146	151	157	163
222	218	213	208	202	196	190	184	177	171	165	158	152	146	141	135	130	126	122	119	116	113	112	111	110	111	112	113	115	118	122	125	130	135	140	146	151	158	164	170	177	183	189	196	202	207	213	217	222	226	229	232	235	236	237	238	238	237	235	233	230	227	223	219	214	209	203	197	191	185	179	172	166	159	153	147	142	136	131	127	123	119	116	114	112	111	110	111	111	113	115	118	121	125	129	134	139	144	150	156
214	210	205	200	194	188	182	176	169	163	157	150	144	138	133	127	122	118	114	110	108	105	104	103	102	103	104	105	107	110	114	117	122	127	132	138	143	150	156	162	169	175	181	188	194	199	205	209	214	218	221	224	227	228	229	230	230	229	227	225	222	219	215	211	206	201	195	189	183	177	171	164	158	151	145	139	134	128	123	119	115	111	108	106	104	103	102	103	103	105	107	110	113	117	121	126	131	136	142	148
205	201	196	191	185	179	173	167	160	154	147	141	135	129	123	118	113	109	105	101	98	96	95	94	93	94	94	96	98	101	104	108	113	118	123	128	134	140	147	153	160	166	172	178	184	190	195	200	205	209	212	215	218	219	220	221	220	220	218	216	213	210	206	202	197	192	186	180	174	168	161	155	149	142	136	130	124	119	114	110	106	102	99	97	95	94	93	93	94	96	98	100	104	107	112	117	122	127	133	139
195	191	186	181	175	169	163	157	150	144	137	131	125	119	113	108	103	99	95	91	88	86	85	84	83	83	84	86	88	91	94	98	103	107	113	118	124	130	137	143	149	156	162	168	174	180	185	190	195	199	202	205	207	209	210	211	210	210	208	206	203	200	196	192	187	182	176	170	164	158	151	145	139	132	126	120	114	109	104	100	95	92	89	87	85	84	83	83	84	86	88	90	94	97	102	106	112	117	123	129
185	180	175	170	164	158	152	146	139	133	127	120	114	108	103	97	92	88	84	81	78	76	74	73	73	73	74	75	78	80	84	88	92	97	102	108	114	120	126	132	139	145	152	158	164	169	175	180	184	188	192	194	197	199	200	200	200	199	197	195	193	189	185	181	176	171	165	160	153	147	141	134	128	122	115	109	104	98	93	89	85	81	78	76	74	73	73	73	74	75	77	80	83	87	91	96	101	107	112	118
174	169	164	159	153	147	141	135	129	122	116	109	103	97	92	86	82	77	73	70	67	65	63	62	62	62	63	64	67	69	73	77	81	86	91	97	103	109	115	121	128	134	141	147	153	158	164	169	173	177	181	184	186	188	189	189	189	188	186	184	182	178	174	170	165	160	155	149	143	136	130	123	117	111	105	99	93	87	82	78	74	70	67	65	63	62	62	62	63	64	66	69	72	76	80	85	90	96	101	108
163	158	153	148	142	137	130	124	118	111	105	99	92	86	81	76	71	66	62	59	56	54	52	51	51	51	52	54	56	59	62	66	70	75	80	86	92	98	104	111	117	123	130	136	142	148	153	158	162	166	170	173	175	177	178	178	178	177	176	173	171	167	164	159	154	149	144	138	132	125	119	113	106	100	94	88	82	77	72	67	63	59	57	54	52	51	51	51	52	53	55	58	61	65	69	74	79	85	91	97
152	148	143	138	132	126	120	114	107	101	94	88	82	76	70	65	60	56	52	48	45	43	42	41	40	41	41	43	45	48	51	55	60	65	70	75	81	87	94	100	107	113	119	125	131	137	142	147	152	156	159	162	165	166	167	168	168	167	165	163	160	157	153	149	144	139	133	127	121	115	109	102	96	89	83	77	71	66	61	57	53	49	46	44	42	41	40	40	41	43	45	47	51	54	59	64	69	74	80	86
142	138	133	128	122	116	110	104	97	91	85	78	72	66	61	55	50	46	42	39	36	33	32	31	30	31	32	33	35	38	42	45	50	55	60	66	71	78	84	90	97	103	109	116	122	127	133	138	142	146	149	152	155	156	157	158	158	157	155	153	150	147	143	139	134	129	123	117	111	105	99	92	86	80	73	67	62	56	51	47	43	39	36	34	32	31	30	31	31	33	35	38	41	45	49	54	59	64	70	76
134	129	124	119	113	107	101	95	89	82	76	69	63	57	52	46	41	37	33	30	27	25	23	22	22	22	23	24	27	29	33	37	41	46	51	57	63	69	75	81	88	94	101	107	113	118	124	129	133	137	141	144	146	148	149	149	149	148	146	144	142	138	134	130	125	120	114	109	102	96	90	83	77	71	64	58	53	47	42	38	34	30	27	25	23	22	22	22	23	24	26	29	32	36	40	45	50	56	61	68
126	121	117	111	106	100	94	87	81	74	68	62	56	50	44	39	34	29	25	22	19	17	15	14	14	14	15	17	19	22	25	29	33	38	44	49	55	61	67	74	80	87	93	99	105	111	116	121	126	130	133	136	138	140	141	141	141	140	139	137	134	131	127	122	118	112	107	101	95	89	82	76	69	63	57	51	45	40	35	30	26	23	20	17	16	14	14	14	15	16	18	21	24	28	32	37	42	48	54	60
120	115	110	105	99	94	87	81	75	68	62	56	49	44	38	33	28	23	19	16	13	11	9	8	8	8	9	11	13	16	19	23	27	32	37	43	49	55	61	68	74	80	87	93	99	105	110	115	119	123	127	130	132	134	135	135	135	134	133	130	128	124	121	116	111	106	101	95	89	82	76	70	63	57	51	45	39	34	29	24	20	17	14	11	9	8	8	8	9	10	12	15	18	22	26	31	36	42	48	54
115	111	106	101	95	89	83	77	70	64	57	51	45	39	33	28	23	19	15	11	8	6	5	4	3	4	4	6	8	11	14	18	23	28	33	38	44	50	57	63	70	76	82	88	94	100	105	110	115	119	122	125	128	129	130	131	130	130	128	126	123	120	116	112	107	102	96	90	84	78	71	65	59	52	46	40	34	29	24	20	16	12	9	7	5	4	3	3	4	6	8	10	14	17	22	27	32	37	43	49
112	108	103	98	92	86	80	74	67	61	55	48	42	36	31	25	20	16	12	9	6	3	2	1	0	1	2	3	5	8	12	16	20	25	30	36	42	48	54	60	67	73	79	86	92	97	103	108	112	116	119	122	125	126	128	128	128	127	125	123	120	117	113	109	104	99	93	87	81	75	69	62	56	50	43	37	32	26	21	17	13	9	6	4	2	1	0	1	1	3	5	8	11	15	19	24	29	34	40	46
111	107	102	97	91	85	79	73	66	60	54	47	41	35	30	24	19	15	11	8	5	2	1	0	0	0	1	2	5	7	11	15	19	24	29	35	41	47	53	59	66	72	79	85	91	96	102	107	111	115	119	121	124	126	127	127	127	126	124	122	120	116	112	108	103	98	92	87	80	74	68	61	55	49	42	36	31	25	20	16	12	8	5	3	1	0	0	0	0	2	4	7	10	14	18	23	28	34	39	45
112	108	103	98	92	86	80	74	67	61	55	48	42	36	31	25	20	16	12	9	6	3	2	1	0	1	2	3	5	8	12	16	20	25	30	36	42	48	54	60	67	73	79	86	92	97	103	108	112	116	120	122	125	126	128	128	128	127	125	123	120	117	113	109	104	99	93	87	81	75	69	62	56	50	43	37	32	26	21	17	13	9	6	4	2	1	0	1	1	3	5	8	11	15	19	24	29	34	40	46
115	111	106	101	95	89	83	77	70	64	57	51	45	39	33	28	23	19	15	11	8	6	5	4	3	4	4	6	8	11	14	18	23	28	33	38	44	50	57	63	70	76	82	88	94	100	105	110	115	119	122	125	128	129	130	131	130	130	128	126	123	120	116	112	107	102	96	90	84	78	71	65	59	52	46	40	34	29	24	20	16	12	9	7	5	4	3	3	4	6	8	10	14	17	22	27	32	37	43	49
120	115	110	105	100	94	87	81	75	68	62	56	49	44	38	33	28	23	19	16	13	11	9	8	8	8	9	11	13	16	19	23	27	32	37	43	49	55	61	68	74	81	87	93	99	105	110	115	119	123	127	130	132	134	135	135	135	134	133	131	128	124	121	116	111	106	101	95	89	82	76	70	63	57	51	45	39	34	29	24	20	17	14	11	9	8	8	8	9	10	12	15	18	22	26	31	36	42	48	54
126	122	117	111	106	100	94	87	81	74	68	62	56	50	44	39	34	29	26	22	19	17	15	14	14	14	15	17	19	22	25	29	33	38	44	49	55	61	67	74	80	87	93	99	105	111	116	121	126	130	133	136	138	140	141	141	141	140	139	137	134	131	127	122	118	112	107	101	95	89	82	76	69	63	57	51	45	40	35	30	26	23	20	17	16	14	14	14	15	16	18	21	24	28	33	37	42	48	54	60
134	129	124	119	113	107	101	95	89	82	76	69	63	57	52	46	42	37	33	30	27	25	23	22	22	22	23	24	27	29	33	37	41	46	51	57	63	69	75	82	88	94	101	107	113	118	124	129	133	137	141	144	146	148	149	149	149	148	146	144	142	138	134	130	125	120	115	109	103	96	90	83	77	71	65	59	53	47	43	38	34	30	27	25	23	22	22	22	23	24	26	29	32	36	40	45	50	56	61	68
142	138	133	128	122	116	110	104	97	91	85	78	72	66	61	55	50	46	42	39	36	33	32	31	30	31	32	33	35	38	42	46	50	55	60	66	72	78	84	90	97	103	110	116	122	127	133	138	142	146	150	152	155	156	158	158	158	157	155	153	150	147	143	139	134	129	123	118	111	105	99	92	86	80	73	67	62	56	51	47	43	39	36	34	32	31	30	31	31	33	35	38	41	45	49	54	59	64	70	76
152	148	143	138	132	126	120	114	107	101	94	88	82	76	70	65	60	56	52	48	46	43	42	41	40	41	42	43	45	48	51	55	60	65	70	75	81	88	94	100	107	113	119	126	131	137	142	147	152	156	159	162	165	166	167	168	168	167	165	163	160	157	153	149	144	139	133	127	121	115	109	102	96	89	83	77	72	66	61	57	53	49	46	44	42	41	40	40	41	43	45	47	51	55	59	64	69	74	80	86
163	158	153	148	143	137	130	124	118	111	105	99	92	87	81	76	71	66	62	59	56	54	52	51	51	51	52	54	56	59	62	66	70	75	80	86	92	98	104	111	117	124	130	136	142	148	153	158	162	166	170	173	175	177	178	178	178	177	176	174	171	167	164	159	154	149	144	138	132	125	119	113	106	100	94	88	82	77	72	67	63	60	57	54	52	51	51	51	52	53	55	58	61	65	69	74	79	85	91	97
174	169	164	159	153	147	141	135	129	122	116	109	103	97	92	86	82	77	73	70	67	65	63	62	62	62	63	64	67	69	73	77	81	86	91	97	103	109	115	122	128	134	141	147	153	158	164	169	173	177	181	184	186	188	189	189	189	188	187	184	182	178	175	170	165	160	155	149	143	136	130	123	117	111	105	99	93	88	83	78	74	70	67	65	63	62	62	62	63	64	66	69	72	76	80	85	90	96	102	108
185	180	175	170	164	158	152	146	140	133	127	120	114	108	103	97	93	88	84	81	78	76	74	73	73	73	74	75	78	80	84	88	92	97	102	108	114	120	126	132	139	145	152	158	164	169	175	180	184	188	192	195	197	199	200	200	200	199	197	195	193	189	185	181	176	171	165	160	154	147	141	134	128	122	115	110	104	98	93	89	85	81	78	76	74	73	73	73	74	75	77	80	83	87	91	96	101	107	112	119
195	191	186	181	175	169	163	157	150	144	137	131	125	119	113	108	103	99	95	91	88	86	85	84	83	84	84	86	88	91	94	98	103	108	113	118	124	130	137	143	150	156	162	168	174	180	185	190	195	199	202	205	208	209	210	211	210	210	208	206	203	200	196	192	187	182	176	170	164	158	151	145	139	132	126	120	114	109	104	100	96	92	89	87	85	84	83	83	84	86	88	90	94	97	102	107	112	117	123	129
205	201	196	191	185	179	173	167	160	154	147	141	135	129	123	118	113	109	105	101	99	96	95	94	93	94	95	96	98	101	104	108	113	118	123	128	134	140	147	153	160	166	172	178	184	190	195	200	205	209	212	215	218	219	220	221	221	220	218	216	213	210	206	202	197	192	186	180	174	168	162	155	149	142	136	130	125	119	114	110	106	102	99	97	95	94	93	93	94	96	98	100	104	108	112	117	122	127	133	139
214	210	205	200	194	188	182	176	169	163	157	150	144	138	133	127	122	118	114	111	108	105	104	103	102	103	104	105	107	110	114	118	122	127	132	138	144	150	156	162	169	175	181	188	194	199	205	210	214	218	222	224	227	228	230	230	230	229	227	225	222	219	215	211	206	201	195	189	183	177	171	164	158	152	145	139	134	128	123	119	115	111	108	106	104	103	102	103	103	105	107	110	113	117	121	126	131	136	142	148
222	218	213	208	202	196	190	184	177	171	165	158	152	146	141	135	130	126	122	119	116	113	112	111	110	111	112	113	115	118	122	126	130	135	140	146	152	158	164	170	177	183	190	196	202	207	213	218	222	226	230	232	235	236	238	238	238	237	235	233	230	227	223	219	214	209	203	197	191	185	179	172	166	160	153	147	142	136	131	127	123	119	116	114	112	111	110	111	111	113	115	118	121	125	129	134	139	144	150	156
229	225	220	214	209	203	197	190	184	178	171	165	159	153	147	142	137	133	129	125	122	120	118	117	117	117	118	120	122	125	128	132	137	141	147	152	158	164	171	177	183	190	196	202	208	214	219	224	229	233	236	239	241	243	244	245	244	243	242	240	237	234	230	226	221	216	210	204	198	192	185	179	172	166	160	154	148	143	138	133	129	126	123	120	119	118	117	117	118	120	122	124	128	131	136	140	146	151	157	163
234	230	225	219	214	208	202	195	189	183	176	170	164	158	152	147	142	138	134	130	127	125	123	122	122	122	123	125	127	130	133	137	142	146	152	157	163	169	176	182	188	195	201	207	213	219	224	229	234	238	241	244	246	248	249	250	249	249	247	245	242	239	235	231	226	221	215	209	203	197	190	184	178	171	165	159	153	148	143	138	134	131	128	126	124	123	122	122	123	125	127	129	133	136	141	145	151	156	162	168
237	233	228	223	217	211	205	199	192	186	180	173	167	161	156	150	145	141	137	134	131	128	127	126	125	126	127	128	130	133	137	141	145	150	155	161	167	173	179	185	192	198	204	211	217	222	228	233	237	241	245	247	250	251	253	253	253	252	250	248	245	242	238	234	229	224	218	212	206	200	194	187	181	175	168	162	157	151	146	142	138	134	131	129	127	126	125	126	126	128	130	133	136	140	144	149	154	159	165	171
239	234	230	224	219	213	207	200	194	187	181	175	169	163	157	152	147	142	138	135	132	130	128	127	127	127	128	130	132	135	138	142	146	151	157	162	168	174	180	187	193	200	206	212	218	224	229	234	239	243	246	249	251	253	254	254	254	253	252	250	247	244	240	235	231	225	220	214	208	202	195	189	182	176	170	164	158	153	148	143	139	136	133	130	129	127	127	127	128	129	131	134	137	141	145	150	155	161	167	173
239	234	229	224	218	212	206	200	193	187	181	174	168	162	157	151	146	142	138	135	132	130	128	127	127	127	128	129	132	134	138	142	146	151	156	162	168	174	180	186	193	199	206	212	218	223	229	234	238	242	246	249	251	253	254	254	254	253	251	249	247	243	239	235	230	225	219	214	207	201	195	188	182	176	169	163	158	152	147	143	139	135	132	130	128	127	127	127	128	129	131	134	137	141	145	150	155	161	166	172
236	232	227	222	216	210	204	198	191	185	178	172	166	160	154	149	144	140	136	132	130	127	126	125	124	125	126	127	129	132	135	139	144	149	154	159	165	171	178	184	191	197	203	209	215	221	226	231	236	240	243	246	249	250	251	252	252	251	249	247	244	241	237	233	228	223	217	211	205	199	193	186	180	173	167	161	156	150	145	141	137	133	130	128	126	125	124	124	125	127	129	131	135	139	143	148	153	158	164	170
232	228	223	218	212	206	200	194	187	181	174	168	162	156	150	145	140	136	132	128	125	123	122	121	120	121	121	123	125	128	131	135	140	145	150	155	161	167	174	180	187	193	199	205	211	217	222	227	232	236	239	242	245	246	247	248	247	247	245	243	240	237	233	229	224	219	213	207	201	195	188	182	176	169	163	157	151	146	141	137	133	129	126	124	122	121	120	120	121	123	125	127	131	134	139	144	149	154	160	166
227	222	217	212	206	200	194	188	181	175	169	162	156	150	145	139	134	130	126	123	120	118	116	115	115	115	116	117	120	122	126	130	134	139	144	150	156	162	168	174	181	187	194	200	206	211	217	222	226	230	234	236	239	241	242	242	242	241	239	237	235	231	227	223	218	213	207	202	195	189	183	176	170	164	157	151	146	140	135	131	127	123	120	118	116	115	115	115	115	117	119	122	125	129	133	138	143	149	154	160
219	215	210	205	199	193	187	181	174	168	161	155	149	143	137	132	127	123	119	115	113	110	109	108	107	108	109	110	112	115	118	122	127	132	137	142	148	154	161	167	174	180	186	192	198	204	209	214	219	223	226	229	232	233	234	235	235	234	232	230	227	224	220	216	211	206	200	194	188	182	176	169	163	156	150	144	139	133	128	124	120	116	113	111	109	108	107	107	108	110	112	114	118	122	126	131	136	141	147	153
211	206	201	196	190	185	178	172	166	159	153	147	140	135	129	124	119	114	110	107	104	102	100	99	99	99	100	102	104	107	110	114	118	123	128	134	140	146	152	159	165	171	178	184	190	196	201	206	210	214	218	221	223	225	226	226	226	225	224	221	219	215	212	207	202	197	192	186	180	173	167	161	154	148	142	136	130	125	120	115	111	108	105	102	100	99	99	99	100	101	103	106	109	113	117	122	127	133	139	145
201	197	192	187	181	175	169	163	156	150	143	137	131	125	119	114	109	105	101	97	94	92	91	90	89	89	90	92	94	97	100	104	109	114	119	124	130	136	143	149	156	162	168	174	180	186	191	196	201	205	208	211	213	215	216	217	216	216	214	212	209	206	202	198	193	188	182	176	170	164	157	151	145	138	132	126	120	115	110	106	101	98	95	93	91	90	89	89	90	92	94	96	100	103	108	112	118	123	129	135
191	186	182	176	171	165	159	152	146	139	133	127	121	115	109	104	99	94	90	87	84	82	80	79	79	79	80	82	84	87	90	94	98	103	108	114	120	126	132	139	145	152	158	164	170	176	181	186	190	194	198	201	203	205	206	206	206	205	204	202	199	196	192	187	183	177	172	166	160	154	147	141	134	128	122	116	110	105	100	95	91	88	85	82	80	79	79	79	80	81	83	86	89	93	97	102	107	113	119	125
180	176	171	165	160	154	148	141	135	129	122	116	110	104	98	93	88	84	80	76	73	71	69	68	68	68	69	71	73	76	79	83	88	92	98	103	109	115	122	128	134	141	147	153	159	165	170	175	180	184	187	190	192	194	195	196	195	194	193	191	188	185	181	177	172	167	161	155	149	143	136	130	123	117	111	105	99	94	89	84	80	77	74	71	70	69	68	68	69	70	73	75	79	82	87	91	97	102	108	114
169	165	160	154	149	143	137	130	124	118	111	105	99	93	87	82	77	73	69	65	62	60	58	57	57	57	58	60	62	65	68	72	77	81	87	92	98	104	111	117	123	130	136	142	148	154	159	164	169	173	176	179	181	183	184	185	184	184	182	180	177	174	170	166	161	156	150	144	138	132	125	119	113	106	100	94	88	83	78	73	69	66	63	61	59	58	57	57	58	60	62	64	68	71	76	80	86	91	97	103
158	154	149	144	138	132	126	120	113	107	100	94	88	82	76	71	66	62	58	54	52	49	48	47	46	47	48	49	51	54	58	61	66	71	76	82	87	94	100	106	113	119	125	132	138	143	149	153	158	162	165	168	171	172	173	174	174	173	171	169	166	163	159	155	150	145	139	133	127	121	115	108	102	95	89	83	78	72	67	63	59	55	52	50	48	47	46	47	47	49	51	54	57	61	65	70	75	80	86	92
148	144	139	133	128	122	116	109	103	97	90	84	78	72	66	61	56	52	48	44	41	39	37	36	36	36	37	39	41	44	47	51	56	60	66	71	77	83	90	96	102	109	115	121	127	133	138	143	148	152	155	158	160	162	163	164	163	163	161	159	156	153	149	145	140	135	129	123	117	111	104	98	92	85	79	73	67	62	57	52	48	45	42	40	38	37	36	36	37	39	41	43	47	50	55	59	65	70	76	82
139	134	129	124	118	112	106	100	94	87	81	74	68	62	57	51	47	42	38	35	32	30	28	27	27	27	28	29	32	34	38	42	46	51	56	62	68	74	80	87	93	99	106	112	118	123	129	134	138	142	146	149	151	153	154	154	154	153	152	149	147	143	140	135	130	125	120	114	108	101	95	88	82	76	70	64	58	53	48	43	39	35	32	30	28	27	27	27	28	29	31	34	37	41	45	50	55	61	67	73
130	126	121	116	110	104	98	92	85	79	72	66	60	54	48	43	38	34	30	26	24	21	20	19	18	19	20	21	23	26	29	33	38	43	48	53	59	65	72	78	85	91	97	103	109	115	120	125	130	134	137	140	143	144	145	146	146	145	143	141	138	135	131	127	122	117	111	105	99	93	87	80	74	67	61	55	50	44	39	35	31	27	24	22	20	19	18	18	19	21	23	25	29	33	37	42	47	52	58	64
123	119	114	109	103	97	91	85	78	72	65	59	53	47	41	36	31	27	23	19	16	14	13	12	11	12	12	14	16	19	22	26	31	36	41	46	52	58	65	71	78	84	90	96	102	108	113	118	123	127	130	133	136	137	138	139	138	138	136	134	131	128	124	120	115	110	104	98	92	86	79	73	67	60	54	48	42	37	32	28	24	20	17	15	13	12	11	11	12	14	16	18	22	25	30	35	40	45	51	57
118	113	108	103	97	91	85	79	73	66	60	53	47	41	36	31	26	21	17	14	11	9	7	6	6	6	7	8	11	13	17	21	25	30	35	41	47	53	59	66	72	78	85	91	97	103	108	113	117	121	125	128	130	132	133	133	133	132	131	128	126	122	119	114	109	104	99	93	87	80	74	68	61	55	49	43	37	32	27	22	18	14	11	9	7	6	6	6	7	8	10	13	16	20	24	29	34	40	46	52
114	109	105	99	94	88	82	75	69	62	56	50	44	38	32	27	22	17	13	10	7	5	3	2	2	2	3	5	7	10	13	17	21	26	31	37	43	49	55	62	68	75	81	87	93	99	104	109	113	117	121	124	126	128	129	129	129	128	127	125	122	119	115	110	106	100	95	89	83	77	70	64	57	51	45	39	33	28	23	18	14	11	8	5	3	2	2	2	3	4	6	9	12	16	20	25	30	36	42	48
112	107	102	97	92	86	79	73	67	60	54	48	41	36	30	25	20	15	11	8	5	3	1	0	0	0	1	3	5	8	11	15	19	24	29	35	41	47	53	60	66	73	79	85	91	97	102	107	111	115	119	122	124	126	127	127	127	126	125	123	120	117	113	108	104	98	93	87	81	74	68	62	55	49	43	37	31	26	21	16	12	9	6	3	1	0	0	0	1	2	4	7	10	14	18	23	28	34	40	46
112	107	102	97	91	85	79	73	67	60	54	47	41	35	30	24	20	15	11	8	5	3	1	0	0	0	1	2	5	7	11	15	19	24	29	35	41	47	53	60	66	72	79	85	91	96	102	107	111	115	119	122	124	126	127	127	127	126	125	122	120	116	113	108	103	98	93	87	81	74	68	61	55	49	43	37	31	26	21	16	12	8	5	3	1	0	0	0	1	2	4	7	10	14	18	23	28	34	40	46
113	109	104	99	93	87	81	75	68	62	55	49	43	37	31	26	21	17	13	9	7	4	3	2	1	2	3	4	6	9	13	16	21	26	31	37	42	49	55	61	68	74	80	87	93	98	104	108	113	117	120	123	126	127	128	129	129	128	126	124	121	118	114	110	105	100	94	88	82	76	70	63	57	50	44	38	33	27	22	18	14	10	7	5	3	2	1	2	2	4	6	9	12	16	20	25	30	35	41	47
117	112	108	102	97	91	85	78	72	65	59	53	47	41	35	30	25	20	16	13	10	8	6	5	5	5	6	8	10	13	16	20	24	29	34	40	46	52	58	65	71	78	84	90	96	102	107	112	116	120	124	127	129	131	132	132	132	131	130	128	125	122	118	113	109	103	98	92	86	80	73	67	60	54	48	42	36	31	26	21	17	14	11	8	7	5	5	5	6	7	9	12	15	19	23	28	33	39	45	51
122	118	113	108	102	96	90	83	77	71	64	58	52	46	40	35	30	26	22	18	15	13	11	10	10	10	11	13	15	18	21	25	30	34	40	45	51	57	64	70	76	83	89	95	101	107	112	117	122	126	129	132	134	136	137	138	137	137	135	133	130	127	123	119	114	109	103	97	91	85	78	72	66	59	53	47	41	36	31	26	22	19	16	14	12	11	10	10	11	13	15	17	21	24	29	33	39	44	50	56
129	124	120	114	109	103	97	90	84	77	71	65	59	53	47	42	37	32	28	25	22	20	18	17	17	17	18	20	22	25	28	32	36	41	47	52	58	64	70	77	83	90	96	102	108	114	119	124	129	133	136	139	141	143	144	144	144	143	142	140	137	134	130	125	121	115	110	104	98	92	85	79	72	66	60	54	48	43	38	33	29	26	23	20	19	17	17	17	18	19	21	24	27	31	35	40	45	51	57	63
137	133	128	122	117	111	105	98	92	86	79	73	67	61	55	50	45	41	37	33	30	28	26	25	25	25	26	28	30	33	36	40	45	49	55	60	66	72	79	85	91	98	104	110	116	122	127	132	137	141	144	147	149	151	152	153	152	152	150	148	145	142	138	134	129	124	118	112	106	100	93	87	81	74	68	62	56	51	46	41	37	34	31	29	27	26	25	25	26	28	30	32	36	39	44	48	54	59	65	71
146	142	137	132	126	120	114	108	101	95	89	82	76	70	65	59	54	50	46	43	40	37	36	35	34	35	36	37	39	42	46	49	54	59	64	70	75	82	88	94	101	107	113	120	126	131	137	141	146	150	153	156	159	160	161	162	162	161	159	157	154	151	147	143	138	133	127	121	115	109	103	96	90	83	77	71	66	60	55	51	47	43	40	38	36	35	34	35	35	37	39	42	45	49	53	58	63	68	74	80
157	152	147	142	136	130	124	118	111	105	99	92	86	80	75	69	64	60	56	53	50	48	46	45	45	45	46	47	50	52	56	60	64	69	74	80	86	92	98	104	111	117	124	130	136	141	147	152	156	160	164	167	169	171	172	172	172	171	169	167	165	161	157	153	148	143	137	132	125	119	113	106	100	94	87	81	76	70	65	61	57	53	50	48	46	45	45	45	46	47	49	52	55	59	63	68	73	79	84	90
167	163	158	153	147	141	135	129	122	116	109	103	97	91	85	80	75	71	67	63	60	58	57	56	55	56	56	58	60	63	66	70	75	80	85	90	96	102	109	115	122	128	134	140	146	152	157	162	167	171	174	177	180	181	182	183	182	182	180	178	175	172	168	164	159	154	148	142	136	130	123	117	111	104	98	92	86	81	76	72	68	64	61	59	57	56	55	55	56	58	60	62	66	69	74	79	84	89	95	101
178	174	169	164	158	152	146	140	133	127	120	114	108	102	96	91	86	82	78	74	71	69	68	67	66	66	67	69	71	74	77	81	86	90	96	101	107	113	120	126	132	139	145	151	157	163	168	173	178	182	185	188	190	192	193	194	193	193	191	189	186	183	179	175	170	165	159	153	147	141	134	128	122	115	109	103	97	92	87	83	78	75	72	70	68	67	66	66	67	69	71	73	77	80	85	89	95	100	106	112
189	185	180	174	169	163	157	150	144	138	131	125	119	113	107	102	97	92	89	85	82	80	78	77	77	77	78	80	82	85	88	92	96	101	107	112	118	124	130	137	143	150	156	162	168	174	179	184	189	193	196	199	201	203	204	204	204	203	202	200	197	194	190	185	181	175	170	164	158	152	145	139	132	126	120	114	108	103	98	93	89	86	83	80	79	78	77	77	78	79	82	84	87	91	96	100	105	111	117	123
199	195	190	185	179	173	167	161	154	148	142	135	129	123	118	112	107	103	99	96	93	90	89	88	87	88	89	90	92	95	99	103	107	112	117	123	129	135	141	147	154	160	166	173	179	184	190	195	199	203	206	209	212	213	214	215	215	214	212	210	207	204	200	196	191	186	180	174	168	162	156	149	143	137	130	124	119	113	108	104	100	96	93	91	89	88	87	88	88	90	92	95	98	102	106	111	116	121	127	133
209	205	200	195	189	183	177	171	164	158	151	145	139	133	127	122	117	113	109	105	102	100	99	98	97	97	98	100	102	105	108	112	117	121	127	132	138	144	151	157	163	170	176	182	188	194	199	204	209	213	216	219	221	223	224	225	224	224	222	220	217	214	210	206	201	196	190	184	178	172	165	159	153	146	140	134	128	123	118	114	109	106	103	101	99	98	97	97	98	100	102	104	108	111	116	120	126	131	137	143
218	213	209	203	198	192	186	179	173	166	160	154	148	142	136	131	126	121	117	114	111	109	107	106	106	106	107	109	111	114	117	121	125	130	135	141	147	153	159	166	172	179	185	191	197	203	208	213	217	221	225	228	230	232	233	233	233	232	231	229	226	223	219	214	210	204	199	193	187	181	174	168	161	155	149	143	137	132	127	122	118	115	112	109	108	106	106	106	107	108	110	113	116	120	124	129	134	140	146	152
225	221	216	211	205	199	193	187	180	174	167	161	155	149	143	138	133	129	125	121	119	116	115	114	113	114	115	116	118	121	125	128	133	138	143	149	154	161	167	173	180	186	192	199	205	210	216	220	225	229	232	235	238	239	240	241	241	240	238	236	233	230	226	222	217	212	206	200	194	188	182	175	169	162	156	150	145	139	134	130	126	122	119	117	115	114	113	114	114	116	118	121	124	128	132	137	142	147	153	159
231	227	222	217	211	205	199	193	186	180	173	167	161	155	149	144	139	135	131	127	125	122	121	120	119	120	121	122	124	127	131	134	139	144	149	155	160	167	173	179	186	192	198	205	211	216	222	226	231	235	238	241	244	245	246	247	247	246	244	242	239	236	232	228	223	218	212	206	200	194	188	181	175	168	162	156	151	145	140	136	132	128	125	123	121	120	119	120	120	122	124	127	130	134	138	143	148	153	159	165
236	231	226	221	215	210	203	197	191	184	178	172	165	159	154	149	144	139	135	132	129	127	125	124	124	124	125	127	129	132	135	139	143	148	153	159	165	171	177	184	190	196	203	209	215	221	226	231	235	239	243	246	248	250	251	251	251	250	249	246	244	240	237	232	227	222	217	211	205	198	192	186	179	173	167	161	155	150	145	140	136	132	129	127	125	124	124	124	125	126	128	131	134	138	142	147	152	158	164	170
238	234	229	224	218	212	206	200	193	187	180	174	168	162	156	151	146	142	138	134	132	129	128	127	126	127	128	129	131	134	137	141	146	151	156	161	167	173	180	186	193	199	205	211	217	223	228	233	238	242	245	248	251	252	253	254	254	253	251	249	246	243	239	235	230	225	219	213	207	201	195	188	182	175	169	163	158	152	147	143	139	135	132	130	128	127	126	126	127	129	131	133	137	141	145	150	155	160	166	172
239	235	230	224	219	213	207	200	194	188	181	175	169	163	157	152	147	142	139	135	132	130	128	127	127	127	128	130	132	135	138	142	146	151	157	162	168	174	180	187	193	200	206	212	218	224	229	234	239	243	246	249	251	253	254	254	254	253	252	250	247	244	240	235	231	225	220	214	208	202	195	189	182	176	170	164	158	153	148	143	139	136	133	130	129	127	127	127	128	129	131	134	137	141	146	150	155	161	167	173
238	233	228	223	218	212	205	199	193	186	180	174	167	162	156	151	146	141	137	134	131	129	127	126	126	126	127	129	131	134	137	141	145	150	155	161	167	173	179	186	192	199	205	211	217	223	228	233	237	241	245	248	250	252	253	253	253	252	251	249	246	243	239	234	230	224	219	213	207	200	194	188	181	175	169	163	157	152	147	142	138	135	132	129	127	126	126	126	127	128	130	133	136	140	144	149	154	160	166	172
235	230	225	220	215	209	202	196	190	183	177	171	164	159	153	148	143	138	134	131	128	126	124	123	123	123	124	126	128	131	134	138	142	147	152	158	164	170	176	183	189	196	202	208	214	220	225	230	234	238	242	245	247	249	250	250	250	249	248	246	243	240	236	231	227	221	216	210	204	197	191	185	178	172	166	160	154	149	144	139	135	132	129	126	124	123	123	123	124	125	127	130	133	137	141	146	151	157	163	169
230	226	221	215	210	204	198	191	185	179	172	166	160	154	148	143	138	134	130	126	123	121	119	118	118	118	119	121	123	126	129	133	138	142	148	153	159	165	172	178	184	191	197	203	209	215	220	225	230	234	237	240	242	244	245	246	245	244	243	241	238	235	231	227	222	217	211	205	199	193	186	180	173	167	161	155	149	144	139	134	130	127	124	121	120	119	118	118	119	121	123	125	129	132	137	141	147	152	158	164
224	219	214	209	203	198	191	185	179	172	166	160	153	147	142	137	132	127	123	120	117	115	113	112	112	112	113	115	117	120	123	127	131	136	141	147	153	159	165	172	178	184	191	197	203	209	214	219	223	227	231	234	236	238	239	239	239	238	237	234	232	228	225	220	215	210	205	199	193	186	180	174	167	161	155	149	143	138	133	128	124	120	118	115	113	112	112	112	113	114	116	119	122	126	130	135	140	146	152	158
216	211	207	201	196	190	184	177	171	164	158	152	146	140	134	129	124	119	115	112	109	107	105	104	104	104	105	107	109	112	115	119	123	128	134	139	145	151	157	164	170	177	183	189	195	201	206	211	216	220	223	226	228	230	231	231	231	230	229	227	224	221	217	212	208	202	197	191	185	179	172	166	159	153	147	141	135	130	125	120	116	113	110	107	106	104	104	104	105	106	108	111	114	118	122	127	132	138	144	150
207	202	198	192	187	181	175	168	162	155	149	143	137	131	125	120	115	110	106	103	100	98	96	95	95	95	96	98	100	103	106	110	114	119	125	130	136	142	148	155	161	168	174	180	186	192	197	202	207	211	214	217	219	221	222	222	222	221	220	218	215	212	208	203	199	193	188	182	176	170	163	157	150	144	138	132	126	121	116	111	107	104	101	98	97	95	95	95	96	97	99	102	105	109	113	118	123	129	135	141
197	193	188	182	177	171	165	158	152	146	139	133	127	121	115	110	105	101	97	93	90	88	86	85	85	85	86	88	90	93	96	100	105	109	115	120	126	132	139	145	151	158	164	170	176	182	187	192	197	201	204	207	209	211	212	213	212	211	210	208	205	202	198	194	189	183	178	172	166	160	153	147	140	134	128	122	116	111	106	101	97	94	91	88	87	86	85	85	86	87	90	92	95	99	104	108	114	119	125	131
186	182	177	172	166	160	154	148	141	135	129	122	116	110	105	99	94	90	86	83	80	77	76	75	74	75	76	77	79	82	86	90	94	99	104	110	116	122	128	134	141	147	154	160	166	171	177	182	186	190	194	196	199	200	202	202	202	201	199	197	194	191	187	183	178	173	167	162	155	149	143	136	130	124	117	111	106	100	95	91	87	83	80	78	76	75	74	75	75	77	79	82	85	89	93	98	103	108	114	120
176	171	166	161	155	149	143	137	131	124	118	111	105	99	94	88	84	79	75	72	69	67	65	64	64	64	65	66	69	71	75	79	83	88	93	99	105	111	117	123	130	136	143	149	155	160	166	171	175	179	183	186	188	190	191	191	191	190	188	186	184	180	176	172	167	162	156	151	145	138	132	125	119	113	106	101	95	89	84	80	76	72	69	67	65	64	64	64	65	66	68	71	74	78	82	87	92	98	103	110
165	160	155	150	144	138	132	126	120	113	107	100	94	88	83	78	73	68	64	61	58	56	54	53	53	53	54	55	58	60	64	68	72	77	82	88	94	100	106	113	119	125	132	138	144	150	155	160	164	168	172	175	177	179	180	180	180	179	178	175	173	169	166	161	156	151	146	140	134	127	121	115	108	102	96	90	84	79	74	69	65	61	58	56	54	53	53	53	54	55	57	60	63	67	71	76	81	87	93	99
154	150	145	139	134	128	122	115	109	103	96	90	84	78	72	67	62	58	54	50	47	45	43	42	42	42	43	45	47	50	53	57	62	66	72	77	83	89	96	102	108	115	121	127	133	139	144	149	154	158	161	164	166	168	169	170	169	168	167	165	162	159	155	151	146	141	135	129	123	117	110	104	98	91	85	79	73	68	63	58	54	51	48	46	44	43	42	42	43	45	47	49	53	56	61	65	71	76	82	88
144	140	135	129	124	118	112	105	99	93	86	80	74	68	62	57	52	48	44	40	37	35	33	32	32	32	33	35	37	40	43	47	52	56	62	67	73	79	86	92	98	105	111	117	123	129	134	139	144	148	151	154	156	158	159	160	159	159	157	155	152	149	145	141	136	131	125	119	113	107	100	94	88	81	75	69	63	58	53	48	44	41	38	36	34	33	32	32	33	35	37	39	43	46	51	55	61	66	72	78
135	131	126	120	115	109	103	96	90	84	77	71	65	59	53	48	43	39	35	31	28	26	24	23	23	23	24	26	28	31	34	38	43	47	53	58	64	70	77	83	89	96	102	108	114	120	125	130	135	139	142	145	147	149	150	151	150	149	148	146	143	140	136	132	127	122	116	110	104	98	91	85	78	72	66	60	54	49	44	39	35	32	29	26	25	24	23	23	24	26	28	30	34	37	42	46	52	57	63	69
127	123	118	113	107	101	95	89	82	76	69	63	57	51	45	40	35	31	27	23	20	18	17	16	15	16	16	18	20	23	26	30	35	40	45	50	56	62	69	75	82	88	94	100	106	112	117	122	127	131	134	137	140	141	142	143	142	142	140	138	135	132	128	124	119	114	108	102	96	90	83	77	71	64	58	52	46	41	36	32	28	24	21	19	17	16	15	15	16	18	20	22	26	29	34	39	44	49	55	61
121	116	111	106	100	95	88	82	76	69	63	57	50	45	39	34	29	24	20	17	14	12	10	9	9	9	10	12	14	17	20	24	28	33	38	44	50	56	62	69	75	81	88	94	100	106	111	116	120	124	128	131	133	135	136	136	136	135	134	131	129	125	122	117	112	107	102	96	90	83	77	71	64	58	52	46	40	35	30	25	21	18	15	12	10	9	9	9	10	11	13	16	19	23	27	32	37	43	49	55
116	111	107	101	96	90	84	77	71	64	58	52	46	40	34	29	24	19	15	12	9	7	5	4	4	4	5	7	9	12	15	19	23	28	33	39	45	51	57	64	70	77	83	89	95	101	106	111	115	119	123	126	128	130	131	131	131	130	129	127	124	121	117	112	108	102	97	91	85	79	72	66	59	53	47	41	35	30	25	20	16	13	10	7	6	4	4	4	5	6	8	11	14	18	22	27	32	38	44	50
113	108	103	98	93	87	80	74	68	61	55	49	42	37	31	26	21	16	12	9	6	4	2	1	1	1	2	4	6	9	12	16	20	25	30	36	42	48	54	61	67	74	80	86	92	98	103	108	112	116	120	123	125	127	128	128	128	127	126	124	121	117	114	109	104	99	94	88	82	75	69	63	56	50	44	38	32	27	22	17	13	10	7	4	2	1	1	1	2	3	5	8	11	15	19	24	29	35	41	47
112	107	102	97	91	85	79	73	66	60	54	47	41	35	30	24	19	15	11	8	5	3	1	0	0	0	1	2	5	7	11	15	19	24	29	35	41	47	53	59	66	72	79	85	91	96	102	107	111	115	119	122	124	126	127	127	127	126	124	122	120	116	112	108	103	98	92	87	80	74	68	61	55	49	42	36	31	25	20	16	12	8	5	3	1	0	0	0	1	2	4	7	10	14	18	23	28	34	39	45
112	108	103	97	92	86	80	73	67	61	54	48	42	36	30	25	20	16	12	8	5	3	1	0	0	0	1	3	5	8	11	15	20	24	30	35	41	47	54	60	66	73	79	85	91	97	102	107	112	116	119	122	124	126	127	128	127	127	125	123	120	117	113	109	104	99	93	87	81	75	68	62	56	49	43	37	31	26	21	16	12	9	6	4	2	1	0	0	1	3	5	7	11	14	19	23	29	34	40	46
115	110	105	100	94	88	82	76	70	63	57	50	44	38	33	27	23	18	14	11	8	6	4	3	3	3	4	5	8	10	14	18	22	27	32	38	44	50	56	62	69	75	82	88	94	99	105	110	114	118	122	125	127	129	130	130	130	129	127	125	123	119	115	111	106	101	95	90	84	77	71	64	58	52	45	40	34	28	23	19	15	11	8	6	4	3	3	3	4	5	7	10	13	17	21	26	31	37	42	49
119	114	109	104	99	93	87	80	74	67	61	55	49	43	37	32	27	22	18	15	12	10	8	7	7	7	8	10	12	15	18	22	26	31	36	42	48	54	60	67	73	80	86	92	98	104	109	114	118	122	126	129	131	133	134	134	134	133	132	130	127	124	120	115	111	105	100	94	88	81	75	69	62	56	50	44	38	33	28	23	19	16	13	10	8	7	7	7	8	9	11	14	17	21	25	30	35	41	47	53
125	120	115	110	104	99	92	86	80	73	67	61	54	48	43	38	33	28	24	21	18	16	14	13	13	13	14	16	18	21	24	28	32	37	42	48	54	60	66	73	79	85	92	98	104	110	115	120	124	128	132	135	137	139	140	140	140	139	138	135	133	129	126	121	116	111	106	100	94	87	81	75	68	62	56	50	44	39	34	29	25	22	19	16	14	13	13	13	14	15	17	20	23	27	31	36	41	47	53	59
132	128	123	118	112	106	100	93	87	81	74	68	62	56	50	45	40	36	32	28	25	23	21	20	20	20	21	23	25	28	31	35	40	44	50	55	61	67	74	80	86	93	99	105	111	117	122	127	132	136	139	142	144	146	147	148	147	147	145	143	140	137	133	129	124	119	113	107	101	95	88	82	76	69	63	57	51	46	41	36	32	29	26	24	22	21	20	20	21	23	25	27	31	34	39	43	49	54	60	66
141	136	131	126	121	115	108	102	96	89	83	77	70	65	59	54	49	44	40	37	34	32	30	29	29	29	30	32	34	37	40	44	48	53	58	64	70	76	82	89	95	102	108	114	120	126	131	136	140	144	148	151	153	155	156	156	156	155	154	152	149	145	142	137	132	127	122	116	110	103	97	91	84	78	72	66	60	55	50	45	41	38	35	32	30	29	29	29	30	31	33	36	39	43	47	52	57	63	69	75
150	146	141	136	130	124	118	112	105	99	93	86	80	74	69	63	58	54	50	47	44	41	40	39	38	39	40	41	43	46	50	54	58	63	68	74	80	86	92	98	105	111	118	124	130	135	141	146	150	154	158	160	163	164	166	166	166	165	163	161	158	155	151	147	142	137	131	126	119	113	107	100	94	88	81	75	70	64	59	55	51	47	44	42	40	39	38	39	39	41	43	46	49	53	57	62	67	72	78	84
161	156	152	146	141	135	129	122	116	109	103	97	91	85	79	74	69	64	60	57	54	52	50	49	49	49	50	52	54	57	60	64	68	73	78	84	90	96	102	109	115	122	128	134	140	146	151	156	160	164	168	171	173	175	176	176	176	175	174	172	169	166	162	157	153	147	142	136	130	124	117	111	104	98	92	86	80	75	70	65	61	58	55	52	51	49	49	49	50	51	53	56	59	63	67	72	77	83	89	95
172	167	162	157	151	146	139	133	127	120	114	108	101	95	90	85	80	75	71	68	65	63	61	60	60	60	61	63	65	67	71	75	79	84	89	95	101	107	113	120	126	132	139	145	151	157	162	167	171	175	179	182	184	186	187	187	187	186	185	182	180	176	173	168	163	158	153	147	141	134	128	122	115	109	103	97	91	86	81	76	72	68	65	63	61	60	60	60	61	62	64	67	70	74	78	83	88	94	100	106
183	178	173	168	162	156	150	144	138	131	125	118	112	106	101	95	91	86	82	79	76	74	72	71	71	71	72	73	76	78	82	86	90	95	100	106	112	118	124	131	137	143	150	156	162	167	173	178	182	186	190	193	195	197	198	198	198	197	195	193	191	187	183	179	174	169	164	158	152	145	139	132	126	120	114	108	102	96	92	87	83	79	76	74	72	71	71	71	72	73	75	78	81	85	89	94	99	105	110	117
193	189	184	179	173	167	161	155	148	142	135	129	123	117	111	106	101	97	93	89	87	84	83	82	81	82	83	84	86	89	93	96	101	106	111	117	122	129	135	141	148	154	160	167	172	178	183	188	193	197	200	203	206	207	208	209	209	208	206	204	201	198	194	190	185	180	174	168	162	156	150	143	137	130	124	118	113	107	102	98	94	90	87	85	83	82	81	82	82	84	86	89	92	96	100	105	110	115	121	127
